<?xml version="1.0" encoding="utf-8"?>
<!-- Generator: Adobe Illustrator 22.1.0, SVG Export Plug-In . SVG Version: 6.00 Build 0)  -->
<svg version="1.1" id="Layer_1" xmlns="http://www.w3.org/2000/svg" xmlns:xlink="http://www.w3.org/1999/xlink" x="0px" y="0px"
	 viewBox="0 0 270 300" enable-background="new 0 0 270 300" xml:space="preserve">
<g>
	<g>
		<path fill="#FF6700" d="M39.7,294.1c0-96.2,0-192,0-288.2c63.4,0,126.8,0,190.5,0c0,76.1,0,152.3,0,228.9c-35,0-70.1,0-104.6,0
			c0.3-3.7,0.9-7.2,0.9-10.7c0.1-58.2,0-116.3,0.1-174.5c0-5.2-1.6-6.6-6.5-6.4c-9.5,0.3-19,0.2-28.5,0c-3.9-0.1-5.2,1.3-5.2,5.2
			c0.1,69.2,0.1,138.3,0,207.5c0,4.5,1.6,5.6,5.9,5.6c43.8-0.1,87.7-0.1,131.5-0.1c2,0,4,0,6.4,0c0,10.9,0,21.6,0,32.7
			C167,294.1,103.6,294.1,39.7,294.1z"/>
	</g>
</g>
</svg>
