<?xml version="1.0" encoding="utf-8"?>
<!-- Generator: Adobe Illustrator 22.1.0, SVG Export Plug-In . SVG Version: 6.00 Build 0)  -->
<svg version="1.1" id="Layer_1" xmlns="http://www.w3.org/2000/svg" xmlns:xlink="http://www.w3.org/1999/xlink" x="0px" y="0px"
	 viewBox="0 0 500 500" enable-background="new 0 0 500 500" xml:space="preserve">
<g>
	<title>background</title>
	<rect id="canvas_background" x="-1" y="-1" fill="none" width="582" height="402"/>
</g>
<g>
	<title>Layer 1</title>
	<path id="svg_1" fill="#11B6DA" d="M18,329.7c0,21.8,17.7,39.5,39.5,39.5h59.2v60.9c0,11,8.9,19.7,19.7,19.7
		c5.5,0,10.6-2.3,14.1-5.9l74.7-74.7h217.2c21.8,0,39.5-17.7,39.5-39.5V82.9c0-21.8-17.7-39.5-39.5-39.5h-385
		C35.7,43.4,18,61.1,18,82.9L18,329.7L18,329.7L18,329.7z M136.5,216.2c0-13.6,11.1-24.7,24.7-24.7s24.7,11.1,24.7,24.7
		c0,13.6-11.1,24.7-24.7,24.7C147.6,240.9,136.5,229.8,136.5,216.2z M225.3,216.2c0-13.6,11.1-24.7,24.7-24.7
		c13.6,0,24.7,11.1,24.7,24.7c0,13.6-11.1,24.7-24.7,24.7C236.4,240.9,225.3,229.8,225.3,216.2L225.3,216.2z M314.2,216.2
		c0-13.6,11.1-24.7,24.7-24.7c13.6,0,24.7,11.1,24.7,24.7c0,13.6-11.1,24.7-24.7,24.7C325.3,240.9,314.2,229.8,314.2,216.2z"/>
</g>
</svg>
