<?xml version="1.0" encoding="utf-8"?>
<!-- Generator: Adobe Illustrator 22.1.0, SVG Export Plug-In . SVG Version: 6.00 Build 0)  -->
<svg version="1.1" id="Layer_1" xmlns="http://www.w3.org/2000/svg" xmlns:xlink="http://www.w3.org/1999/xlink" x="0px" y="0px"
	 viewBox="0 0 30 30" enable-background="new 0 0 30 30" xml:space="preserve">
<g>
	<path fill="#FF5B00" d="M15,28.5C7.6,28.5,1.5,22.4,1.5,15C1.5,7.6,7.6,1.5,15,1.5c7.4,0,13.5,6.1,13.5,13.5
		C28.5,22.4,22.4,28.5,15,28.5z M14.8,18c0.5,0.9,1,1.6,1.5,2.4l2.7,4.2h4.9l-6.6-9.7l6.4-9.1H19l-2.6,4L16,10.4
		c-0.3,0.6-0.7,1.1-1.1,1.7c-0.5-0.8-0.9-1.5-1.4-2.3l-2.7-4H6.1l6.4,9.2l-6.7,9.6h4.8l2.7-4.2l0.5-0.7C14.1,19.1,14.4,18.5,14.8,18
		z"/>
	<path fill="#F95900" d="M15,2c3.3,0,6.4,1.3,8.7,3.4h-0.9h-3.5h-0.5l-0.3,0.4L16,9.6l-0.4,0.6c-0.2,0.3-0.4,0.7-0.6,1
		c-0.3-0.5-0.6-1-1-1.6l-2.5-3.8l-0.3-0.4h-0.5H7H6.3C8.6,3.3,11.7,2,15,2 M24.3,5.9C26.6,8.3,28,11.5,28,15c0,3.6-1.4,6.8-3.8,9.2
		l-0.4-0.6L17.9,15l5.6-8L24.3,5.9 M5.6,6l0.6,0.9l5.6,8.1l-5.9,8.5L5.6,24C3.4,21.6,2,18.5,2,15C2,11.5,3.4,8.4,5.6,6 M14.7,18.9
		c0.3,0.6,0.7,1.1,1.1,1.7l2.6,4l0.3,0.5h0.5H23h0.2C20.9,26.9,18.1,28,15,28s-5.9-1.1-8.2-2.9h3.4h0.5l0.3-0.5l2.6-4l0.5-0.7
		C14.3,19.6,14.6,19.3,14.7,18.9 M15,1C7.3,1,1,7.3,1,15c0,7.7,6.3,14,14,14s14-6.3,14-14C29,7.3,22.7,1,15,1L15,1z M14.9,13.1H15
		c0.6-1.1,1.2-2,1.8-2.9l2.5-3.8h3.5l-6,8.6l6.2,9.2h-3.7l-2.6-4c-0.7-1-1.3-2-1.9-3.1h-0.1c-0.6,1.1-1.2,2-1.9,3.1l-2.6,4H6.7
		L13,15L7,6.4h3.6l2.5,3.8C13.8,11.2,14.3,12.1,14.9,13.1L14.9,13.1z"/>
</g>
</svg>
