<?xml version="1.0" encoding="utf-8"?>
<!-- Generator: Adobe Illustrator 22.1.0, SVG Export Plug-In . SVG Version: 6.00 Build 0)  -->
<svg version="1.1" id="Layer_1" xmlns="http://www.w3.org/2000/svg" xmlns:xlink="http://www.w3.org/1999/xlink" x="0px" y="0px"
	 viewBox="0 0 270 260" enable-background="new 0 0 270 260" xml:space="preserve">
<g>
	<g>
		<path fill="#FCFAFA" d="M26.9,202.3c-0.7,0-1.3-0.6-1.3-1.3v-10.2c0-0.7,0.6-1.3,1.3-1.3h9.7c0.7,0,1.3,0.6,1.3,1.3V201
			c0,0.7-0.6,1.3-1.3,1.3H26.9z"/>
		<path fill="#FFFFFF" d="M36.6,190c0.4,0,0.8,0.4,0.8,0.8V201c0,0.4-0.4,0.8-0.8,0.8h-9.7c-0.4,0-0.8-0.4-0.8-0.8v-10.2
			c0-0.4,0.4-0.8,0.8-0.8H36.6 M36.6,189h-9.7c-1,0-1.8,0.8-1.8,1.8V201c0,1,0.8,1.8,1.8,1.8h9.7c1,0,1.8-0.8,1.8-1.8v-10.2
			C38.4,189.8,37.6,189,36.6,189L36.6,189z"/>
	</g>
	<g>
		<path fill="#FCFAFA" d="M59.7,202.3c-0.7,0-1.3-0.6-1.3-1.3v-10.2c0-0.7,0.6-1.3,1.3-1.3h9.7c0.7,0,1.3,0.6,1.3,1.3V201
			c0,0.7-0.6,1.3-1.3,1.3H59.7z"/>
		<path fill="#FFFFFF" d="M69.4,190c0.5,0,0.8,0.4,0.8,0.8V201c0,0.4-0.4,0.8-0.8,0.8h-9.7c-0.4,0-0.8-0.4-0.8-0.8v-10.2
			c0-0.4,0.4-0.8,0.8-0.8H69.4 M69.4,189h-9.7c-1,0-1.8,0.8-1.8,1.8V201c0,1,0.8,1.8,1.8,1.8h9.7c1,0,1.8-0.8,1.8-1.8v-10.2
			C71.2,189.8,70.4,189,69.4,189L69.4,189z"/>
	</g>
	<g>
		<path fill="#FCFAFA" d="M108.8,202.3c-0.7,0-1.3-0.6-1.3-1.3v-10.2c0-0.7,0.6-1.3,1.3-1.3h9.7c0.7,0,1.3,0.6,1.3,1.3V201
			c0,0.7-0.6,1.3-1.3,1.3H108.8z"/>
		<path fill="#FFFFFF" d="M118.5,190c0.4,0,0.8,0.4,0.8,0.8V201c0,0.4-0.4,0.8-0.8,0.8h-9.7c-0.4,0-0.8-0.4-0.8-0.8v-10.2
			c0-0.4,0.4-0.8,0.8-0.8H118.5 M118.5,189h-9.7c-1,0-1.8,0.8-1.8,1.8V201c0,1,0.8,1.8,1.8,1.8h9.7c1,0,1.8-0.8,1.8-1.8v-10.2
			C120.3,189.8,119.5,189,118.5,189L118.5,189z"/>
	</g>
	<g>
		<path fill="#FCFAFA" d="M10.6,202.3c-0.7,0-1.3-0.6-1.3-1.3v-10.2c0-0.7,0.6-1.3,1.3-1.3h9.7c0.7,0,1.3,0.6,1.3,1.3V201
			c0,0.7-0.6,1.3-1.3,1.3H10.6z"/>
		<path fill="#FFFFFF" d="M20.2,190c0.4,0,0.8,0.4,0.8,0.8V201c0,0.4-0.4,0.8-0.8,0.8h-9.7c-0.4,0-0.8-0.4-0.8-0.8v-10.2
			c0-0.4,0.4-0.8,0.8-0.8H20.2 M20.2,189h-9.7c-1,0-1.8,0.8-1.8,1.8V201c0,1,0.8,1.8,1.8,1.8h9.7c1,0,1.8-0.8,1.8-1.8v-10.2
			C22.1,189.8,21.2,189,20.2,189L20.2,189z"/>
	</g>
	<g>
		<path fill="#FCFAFA" d="M76.1,202.3c-0.7,0-1.3-0.6-1.3-1.3v-10.2c0-0.7,0.6-1.3,1.3-1.3h9.7c0.7,0,1.3,0.6,1.3,1.3V201
			c0,0.7-0.6,1.3-1.3,1.3H76.1z"/>
		<path fill="#FFFFFF" d="M85.8,190c0.5,0,0.8,0.4,0.8,0.8V201c0,0.4-0.4,0.8-0.8,0.8h-9.7c-0.4,0-0.8-0.4-0.8-0.8v-10.2
			c0-0.4,0.4-0.8,0.8-0.8H85.8 M85.8,189h-9.7c-1,0-1.8,0.8-1.8,1.8V201c0,1,0.8,1.8,1.8,1.8h9.7c1,0,1.8-0.8,1.8-1.8v-10.2
			C87.6,189.8,86.8,189,85.8,189L85.8,189z"/>
	</g>
	<g>
		<path fill="#FCFAFA" d="M92.5,202.3c-0.7,0-1.3-0.6-1.3-1.3v-10.2c0-0.7,0.6-1.3,1.3-1.3h9.7c0.7,0,1.3,0.6,1.3,1.3V201
			c0,0.7-0.6,1.3-1.3,1.3H92.5z"/>
		<path fill="#FFFFFF" d="M102.1,190c0.5,0,0.8,0.4,0.8,0.8V201c0,0.4-0.4,0.8-0.8,0.8h-9.7c-0.4,0-0.8-0.4-0.8-0.8v-10.2
			c0-0.4,0.4-0.8,0.8-0.8H102.1 M102.1,189h-9.7c-1,0-1.8,0.8-1.8,1.8V201c0,1,0.8,1.8,1.8,1.8h9.7c1,0,1.8-0.8,1.8-1.8v-10.2
			C104,189.8,103.1,189,102.1,189L102.1,189z"/>
	</g>
	<g>
		<path fill="#FCFAFA" d="M43.3,202.3c-0.7,0-1.3-0.6-1.3-1.3v-10.2c0-0.7,0.6-1.3,1.3-1.3H53c0.7,0,1.3,0.6,1.3,1.3V201
			c0,0.7-0.6,1.3-1.3,1.3H43.3z"/>
		<path fill="#FFFFFF" d="M53,190c0.5,0,0.8,0.4,0.8,0.8V201c0,0.4-0.4,0.8-0.8,0.8h-9.7c-0.4,0-0.8-0.4-0.8-0.8v-10.2
			c0-0.4,0.4-0.8,0.8-0.8H53 M53,189h-9.7c-1,0-1.8,0.8-1.8,1.8V201c0,1,0.8,1.8,1.8,1.8H53c1,0,1.8-0.8,1.8-1.8v-10.2
			C54.8,189.8,54,189,53,189L53,189z"/>
	</g>
	<g>
		<path fill="#FCFAFA" d="M125.2,202.3c-0.7,0-1.3-0.6-1.3-1.3v-10.2c0-0.7,0.6-1.3,1.3-1.3h9.7c0.7,0,1.3,0.6,1.3,1.3V201
			c0,0.7-0.6,1.3-1.3,1.3H125.2z"/>
		<path fill="#FFFFFF" d="M134.9,190c0.4,0,0.8,0.4,0.8,0.8V201c0,0.4-0.4,0.8-0.8,0.8h-9.7c-0.4,0-0.8-0.4-0.8-0.8v-10.2
			c0-0.4,0.4-0.8,0.8-0.8H134.9 M134.9,189h-9.7c-1,0-1.8,0.8-1.8,1.8V201c0,1,0.8,1.8,1.8,1.8h9.7c1,0,1.8-0.8,1.8-1.8v-10.2
			C136.7,189.8,135.9,189,134.9,189L134.9,189z"/>
	</g>
	<g>
		<path fill="#FCFAFA" d="M141.6,202.3c-0.7,0-1.3-0.6-1.3-1.3v-10.2c0-0.7,0.6-1.3,1.3-1.3h9.7c0.7,0,1.3,0.6,1.3,1.3V201
			c0,0.7-0.6,1.3-1.3,1.3H141.6z"/>
		<path fill="#FFFFFF" d="M151.3,190c0.4,0,0.8,0.4,0.8,0.8V201c0,0.4-0.4,0.8-0.8,0.8h-9.7c-0.4,0-0.8-0.4-0.8-0.8v-10.2
			c0-0.4,0.4-0.8,0.8-0.8H151.3 M151.3,189h-9.7c-1,0-1.8,0.8-1.8,1.8V201c0,1,0.8,1.8,1.8,1.8h9.7c1,0,1.8-0.8,1.8-1.8v-10.2
			C153.1,189.8,152.3,189,151.3,189L151.3,189z"/>
	</g>
	<g>
		<path fill="#FCFAFA" d="M158,202.3c-0.7,0-1.3-0.6-1.3-1.3v-10.2c0-0.7,0.6-1.3,1.3-1.3h9.7c0.7,0,1.3,0.6,1.3,1.3V201
			c0,0.7-0.6,1.3-1.3,1.3H158z"/>
		<path fill="#FFFFFF" d="M167.7,190c0.4,0,0.8,0.4,0.8,0.8V201c0,0.4-0.4,0.8-0.8,0.8H158c-0.4,0-0.8-0.4-0.8-0.8v-10.2
			c0-0.4,0.4-0.8,0.8-0.8H167.7 M167.7,189H158c-1,0-1.8,0.8-1.8,1.8V201c0,1,0.8,1.8,1.8,1.8h9.7c1,0,1.8-0.8,1.8-1.8v-10.2
			C169.5,189.8,168.7,189,167.7,189L167.7,189z"/>
	</g>
	<g>
		<path fill="#FCFAFA" d="M239.9,202.3c-0.7,0-1.3-0.6-1.3-1.3v-10.2c0-0.7,0.6-1.3,1.3-1.3h24.6c1.6,0,2.8,0.7,2.8,1.3V201
			c0,0.6-1.2,1.3-2.8,1.3H239.9z"/>
		<path fill="#FFFFFF" d="M264.5,190c1.5,0,2.3,0.6,2.3,0.8V201c0,0.2-0.8,0.8-2.3,0.8h-24.6c-0.4,0-0.8-0.4-0.8-0.8v-10.2
			c0-0.4,0.4-0.8,0.8-0.8H264.5 M264.5,189h-24.6c-1,0-1.8,0.8-1.8,1.8V201c0,1,0.8,1.8,1.8,1.8h24.6c1.8,0,3.3-0.8,3.3-1.8v-10.2
			C267.8,189.8,266.3,189,264.5,189L264.5,189z"/>
	</g>
	<g>
		<path fill="#FCFAFA" d="M174.4,202.3c-0.7,0-1.3-0.6-1.3-1.3v-10.2c0-0.7,0.6-1.3,1.3-1.3h9.7c0.7,0,1.3,0.6,1.3,1.3V201
			c0,0.7-0.6,1.3-1.3,1.3H174.4z"/>
		<path fill="#FFFFFF" d="M184,190c0.4,0,0.8,0.4,0.8,0.8V201c0,0.4-0.4,0.8-0.8,0.8h-9.7c-0.5,0-0.8-0.4-0.8-0.8v-10.2
			c0-0.4,0.4-0.8,0.8-0.8H184 M184,189h-9.7c-1,0-1.8,0.8-1.8,1.8V201c0,1,0.8,1.8,1.8,1.8h9.7c1,0,1.8-0.8,1.8-1.8v-10.2
			C185.8,189.8,185,189,184,189L184,189z"/>
	</g>
	<g>
		<path fill="#FCFAFA" d="M207.1,202.3c-0.7,0-1.3-0.6-1.3-1.3v-10.2c0-0.7,0.6-1.3,1.3-1.3h9.7c0.7,0,1.3,0.6,1.3,1.3V201
			c0,0.7-0.6,1.3-1.3,1.3H207.1z"/>
		<path fill="#FFFFFF" d="M216.8,190c0.4,0,0.8,0.4,0.8,0.8V201c0,0.4-0.4,0.8-0.8,0.8h-9.7c-0.5,0-0.8-0.4-0.8-0.8v-10.2
			c0-0.4,0.4-0.8,0.8-0.8H216.8 M216.8,189h-9.7c-1,0-1.8,0.8-1.8,1.8V201c0,1,0.8,1.8,1.8,1.8h9.7c1,0,1.8-0.8,1.8-1.8v-10.2
			C218.6,189.8,217.8,189,216.8,189L216.8,189z"/>
	</g>
	<g>
		<path fill="#FCFAFA" d="M223.5,202.3c-0.7,0-1.3-0.6-1.3-1.3v-10.2c0-0.7,0.6-1.3,1.3-1.3h9.7c0.7,0,1.3,0.6,1.3,1.3V201
			c0,0.7-0.6,1.3-1.3,1.3H223.5z"/>
		<path fill="#FFFFFF" d="M233.2,190c0.4,0,0.8,0.4,0.8,0.8V201c0,0.4-0.4,0.8-0.8,0.8h-9.7c-0.5,0-0.8-0.4-0.8-0.8v-10.2
			c0-0.4,0.4-0.8,0.8-0.8H233.2 M233.2,189h-9.7c-1,0-1.8,0.8-1.8,1.8V201c0,1,0.8,1.8,1.8,1.8h9.7c1,0,1.8-0.8,1.8-1.8v-10.2
			C235,189.8,234.2,189,233.2,189L233.2,189z"/>
	</g>
	<g>
		<path fill="#FCFAFA" d="M190.7,202.3c-0.7,0-1.3-0.6-1.3-1.3v-10.2c0-0.7,0.6-1.3,1.3-1.3h9.7c0.7,0,1.3,0.6,1.3,1.3V201
			c0,0.7-0.6,1.3-1.3,1.3H190.7z"/>
		<path fill="#FFFFFF" d="M200.4,190c0.4,0,0.8,0.4,0.8,0.8V201c0,0.4-0.4,0.8-0.8,0.8h-9.7c-0.5,0-0.8-0.4-0.8-0.8v-10.2
			c0-0.4,0.4-0.8,0.8-0.8H200.4 M200.4,189h-9.7c-1,0-1.8,0.8-1.8,1.8V201c0,1,0.8,1.8,1.8,1.8h9.7c1,0,1.8-0.8,1.8-1.8v-10.2
			C202.2,189.8,201.4,189,200.4,189L200.4,189z"/>
	</g>
	<g>
		<path fill="#FCFAFA" d="M10.6,219.4c-0.7,0-1.3-0.6-1.3-1.3v-10.2c0-0.7,0.6-1.3,1.3-1.3h9.7c0.7,0,1.3,0.6,1.3,1.3v10.2
			c0,0.7-0.6,1.3-1.3,1.3H10.6z"/>
		<path fill="#FFFFFF" d="M20.2,207c0.4,0,0.8,0.4,0.8,0.8v10.2c0,0.4-0.4,0.8-0.8,0.8h-9.7c-0.4,0-0.8-0.4-0.8-0.8v-10.2
			c0-0.4,0.4-0.8,0.8-0.8H20.2 M20.2,206h-9.7c-1,0-1.8,0.8-1.8,1.8v10.2c0,1,0.8,1.8,1.8,1.8h9.7c1,0,1.8-0.8,1.8-1.8v-10.2
			C22.1,206.9,21.2,206,20.2,206L20.2,206z"/>
	</g>
	<g>
		<path fill="#FCFAFA" d="M174.4,236.5c-0.7,0-1.3-0.6-1.3-1.3v-10.2c0-0.7,0.6-1.3,1.3-1.3h9.7c0.7,0,1.3,0.6,1.3,1.3v10.2
			c0,0.7-0.6,1.3-1.3,1.3H174.4z"/>
		<path fill="#FFFFFF" d="M184,224.1c0.4,0,0.8,0.4,0.8,0.8v10.2c0,0.4-0.4,0.8-0.8,0.8h-9.7c-0.5,0-0.8-0.4-0.8-0.8v-10.2
			c0-0.4,0.4-0.8,0.8-0.8H184 M184,223.1h-9.7c-1,0-1.8,0.8-1.8,1.8v10.2c0,1,0.8,1.8,1.8,1.8h9.7c1,0,1.8-0.8,1.8-1.8v-10.2
			C185.8,223.9,185,223.1,184,223.1L184,223.1z"/>
	</g>
	<g>
		<path fill="#FCFAFA" d="M190.7,219.4c-0.7,0-1.3-0.6-1.3-1.3v-10.2c0-0.7,0.6-1.3,1.3-1.3h9.7c0.7,0,1.3,0.6,1.3,1.3v10.2
			c0,0.7-0.6,1.3-1.3,1.3H190.7z"/>
		<path fill="#FFFFFF" d="M200.4,207c0.4,0,0.8,0.4,0.8,0.8v10.2c0,0.4-0.4,0.8-0.8,0.8h-9.7c-0.5,0-0.8-0.4-0.8-0.8v-10.2
			c0-0.4,0.4-0.8,0.8-0.8H200.4 M200.4,206h-9.7c-1,0-1.8,0.8-1.8,1.8v10.2c0,1,0.8,1.8,1.8,1.8h9.7c1,0,1.8-0.8,1.8-1.8v-10.2
			C202.2,206.9,201.4,206,200.4,206L200.4,206z"/>
	</g>
	<g>
		<path fill="#FCFAFA" d="M43.3,253.5c-0.7,0-1.3-0.6-1.3-1.3V242c0-0.7,0.6-1.3,1.3-1.3H53c0.7,0,1.3,0.6,1.3,1.3v10.2
			c0,0.7-0.6,1.3-1.3,1.3H43.3z"/>
		<path fill="#FFFFFF" d="M53,241.1c0.5,0,0.8,0.4,0.8,0.8v10.2c0,0.4-0.4,0.8-0.8,0.8h-9.7c-0.4,0-0.8-0.4-0.8-0.8V242
			c0-0.4,0.4-0.8,0.8-0.8H53 M53,240.1h-9.7c-1,0-1.8,0.8-1.8,1.8v10.2c0,1,0.8,1.8,1.8,1.8H53c1,0,1.8-0.8,1.8-1.8V242
			C54.8,241,54,240.1,53,240.1L53,240.1z"/>
	</g>
	<g>
		<path fill="#FCFAFA" d="M92.5,236.5c-0.7,0-1.3-0.6-1.3-1.3v-10.2c0-0.7,0.6-1.3,1.3-1.3h9.7c0.7,0,1.3,0.6,1.3,1.3v10.2
			c0,0.7-0.6,1.3-1.3,1.3H92.5z"/>
		<path fill="#FFFFFF" d="M102.1,224.1c0.5,0,0.8,0.4,0.8,0.8v10.2c0,0.4-0.4,0.8-0.8,0.8h-9.7c-0.4,0-0.8-0.4-0.8-0.8v-10.2
			c0-0.4,0.4-0.8,0.8-0.8H102.1 M102.1,223.1h-9.7c-1,0-1.8,0.8-1.8,1.8v10.2c0,1,0.8,1.8,1.8,1.8h9.7c1,0,1.8-0.8,1.8-1.8v-10.2
			C104,223.9,103.1,223.1,102.1,223.1L102.1,223.1z"/>
	</g>
	<g>
		<path fill="#FCFAFA" d="M207.1,219.4c-0.7,0-1.3-0.6-1.3-1.3v-10.2c0-0.7,0.6-1.3,1.3-1.3h9.7c0.7,0,1.3,0.6,1.3,1.3v10.2
			c0,0.7-0.6,1.3-1.3,1.3H207.1z"/>
		<path fill="#FFFFFF" d="M216.8,207c0.4,0,0.8,0.4,0.8,0.8v10.2c0,0.4-0.4,0.8-0.8,0.8h-9.7c-0.5,0-0.8-0.4-0.8-0.8v-10.2
			c0-0.4,0.4-0.8,0.8-0.8H216.8 M216.8,206h-9.7c-1,0-1.8,0.8-1.8,1.8v10.2c0,1,0.8,1.8,1.8,1.8h9.7c1,0,1.8-0.8,1.8-1.8v-10.2
			C218.6,206.9,217.8,206,216.8,206L216.8,206z"/>
	</g>
	<g>
		<path fill="#FCFAFA" d="M207.1,253.5c-0.7,0-1.3-0.6-1.3-1.3V242c0-0.7,0.6-1.3,1.3-1.3h9.7c0.7,0,1.3,0.6,1.3,1.3v10.2
			c0,0.7-0.6,1.3-1.3,1.3H207.1z"/>
		<path fill="#FFFFFF" d="M216.8,241.1c0.4,0,0.8,0.4,0.8,0.8v10.2c0,0.4-0.4,0.8-0.8,0.8h-9.7c-0.5,0-0.8-0.4-0.8-0.8V242
			c0-0.4,0.4-0.8,0.8-0.8H216.8 M216.8,240.1h-9.7c-1,0-1.8,0.8-1.8,1.8v10.2c0,1,0.8,1.8,1.8,1.8h9.7c1,0,1.8-0.8,1.8-1.8V242
			C218.6,241,217.8,240.1,216.8,240.1L216.8,240.1z"/>
	</g>
	<g>
		<path fill="#FCFAFA" d="M190.7,236.5c-0.7,0-1.3-0.6-1.3-1.3v-10.2c0-0.7,0.6-1.3,1.3-1.3h9.7c0.7,0,1.3,0.6,1.3,1.3v10.2
			c0,0.7-0.6,1.3-1.3,1.3H190.7z"/>
		<path fill="#FFFFFF" d="M200.4,224.1c0.4,0,0.8,0.4,0.8,0.8v10.2c0,0.4-0.4,0.8-0.8,0.8h-9.7c-0.5,0-0.8-0.4-0.8-0.8v-10.2
			c0-0.4,0.4-0.8,0.8-0.8H200.4 M200.4,223.1h-9.7c-1,0-1.8,0.8-1.8,1.8v10.2c0,1,0.8,1.8,1.8,1.8h9.7c1,0,1.8-0.8,1.8-1.8v-10.2
			C202.2,223.9,201.4,223.1,200.4,223.1L200.4,223.1z"/>
	</g>
	<g>
		<path fill="#FCFAFA" d="M223.5,236.5c-0.7,0-1.3-0.6-1.3-1.3v-10.2c0-0.7,0.6-1.3,1.3-1.3h9.7c0.7,0,1.3,0.6,1.3,1.3v10.2
			c0,0.7-0.6,1.3-1.3,1.3H223.5z"/>
		<path fill="#FFFFFF" d="M233.2,224.1c0.4,0,0.8,0.4,0.8,0.8v10.2c0,0.4-0.4,0.8-0.8,0.8h-9.7c-0.5,0-0.8-0.4-0.8-0.8v-10.2
			c0-0.4,0.4-0.8,0.8-0.8H233.2 M233.2,223.1h-9.7c-1,0-1.8,0.8-1.8,1.8v10.2c0,1,0.8,1.8,1.8,1.8h9.7c1,0,1.8-0.8,1.8-1.8v-10.2
			C235,223.9,234.2,223.1,233.2,223.1L233.2,223.1z"/>
	</g>
	<g>
		<path fill="#FCFAFA" d="M141.6,219.4c-0.7,0-1.3-0.6-1.3-1.3v-10.2c0-0.7,0.6-1.3,1.3-1.3h9.7c0.7,0,1.3,0.6,1.3,1.3v10.2
			c0,0.7-0.6,1.3-1.3,1.3H141.6z"/>
		<path fill="#FFFFFF" d="M151.3,207c0.4,0,0.8,0.4,0.8,0.8v10.2c0,0.4-0.4,0.8-0.8,0.8h-9.7c-0.4,0-0.8-0.4-0.8-0.8v-10.2
			c0-0.4,0.4-0.8,0.8-0.8H151.3 M151.3,206h-9.7c-1,0-1.8,0.8-1.8,1.8v10.2c0,1,0.8,1.8,1.8,1.8h9.7c1,0,1.8-0.8,1.8-1.8v-10.2
			C153.1,206.9,152.3,206,151.3,206L151.3,206z"/>
	</g>
	<g>
		<path fill="#FCFAFA" d="M223.5,219.4c-0.7,0-1.3-0.6-1.3-1.3v-10.2c0-0.7,0.6-1.3,1.3-1.3h9.7c0.7,0,1.3,0.6,1.3,1.3v10.2
			c0,0.7-0.6,1.3-1.3,1.3H223.5z"/>
		<path fill="#FFFFFF" d="M233.2,207c0.4,0,0.8,0.4,0.8,0.8v10.2c0,0.4-0.4,0.8-0.8,0.8h-9.7c-0.5,0-0.8-0.4-0.8-0.8v-10.2
			c0-0.4,0.4-0.8,0.8-0.8H233.2 M233.2,206h-9.7c-1,0-1.8,0.8-1.8,1.8v10.2c0,1,0.8,1.8,1.8,1.8h9.7c1,0,1.8-0.8,1.8-1.8v-10.2
			C235,206.9,234.2,206,233.2,206L233.2,206z"/>
	</g>
	<g>
		<path fill="#FCFAFA" d="M125.2,236.5c-0.7,0-1.3-0.6-1.3-1.3v-10.2c0-0.7,0.6-1.3,1.3-1.3h9.7c0.7,0,1.3,0.6,1.3,1.3v10.2
			c0,0.7-0.6,1.3-1.3,1.3H125.2z"/>
		<path fill="#FFFFFF" d="M134.9,224.1c0.4,0,0.8,0.4,0.8,0.8v10.2c0,0.4-0.4,0.8-0.8,0.8h-9.7c-0.4,0-0.8-0.4-0.8-0.8v-10.2
			c0-0.4,0.4-0.8,0.8-0.8H134.9 M134.9,223.1h-9.7c-1,0-1.8,0.8-1.8,1.8v10.2c0,1,0.8,1.8,1.8,1.8h9.7c1,0,1.8-0.8,1.8-1.8v-10.2
			C136.7,223.9,135.9,223.1,134.9,223.1L134.9,223.1z"/>
	</g>
	<g>
		<path fill="#FCFAFA" d="M59.7,236.5c-0.7,0-1.3-0.6-1.3-1.3v-10.2c0-0.7,0.6-1.3,1.3-1.3h9.7c0.7,0,1.3,0.6,1.3,1.3v10.2
			c0,0.7-0.6,1.3-1.3,1.3H59.7z"/>
		<path fill="#FFFFFF" d="M69.4,224.1c0.5,0,0.8,0.4,0.8,0.8v10.2c0,0.4-0.4,0.8-0.8,0.8h-9.7c-0.4,0-0.8-0.4-0.8-0.8v-10.2
			c0-0.4,0.4-0.8,0.8-0.8H69.4 M69.4,223.1h-9.7c-1,0-1.8,0.8-1.8,1.8v10.2c0,1,0.8,1.8,1.8,1.8h9.7c1,0,1.8-0.8,1.8-1.8v-10.2
			C71.2,223.9,70.4,223.1,69.4,223.1L69.4,223.1z"/>
	</g>
	<g>
		<path fill="#FCFAFA" d="M108.8,236.5c-0.7,0-1.3-0.6-1.3-1.3v-10.2c0-0.7,0.6-1.3,1.3-1.3h9.7c0.7,0,1.3,0.6,1.3,1.3v10.2
			c0,0.7-0.6,1.3-1.3,1.3H108.8z"/>
		<path fill="#FFFFFF" d="M118.5,224.1c0.4,0,0.8,0.4,0.8,0.8v10.2c0,0.4-0.4,0.8-0.8,0.8h-9.7c-0.4,0-0.8-0.4-0.8-0.8v-10.2
			c0-0.4,0.4-0.8,0.8-0.8H118.5 M118.5,223.1h-9.7c-1,0-1.8,0.8-1.8,1.8v10.2c0,1,0.8,1.8,1.8,1.8h9.7c1,0,1.8-0.8,1.8-1.8v-10.2
			C120.3,223.9,119.5,223.1,118.5,223.1L118.5,223.1z"/>
	</g>
	<g>
		<path fill="#FCFAFA" d="M92.5,219.4c-0.7,0-1.3-0.6-1.3-1.3v-10.2c0-0.7,0.6-1.3,1.3-1.3h9.7c0.7,0,1.3,0.6,1.3,1.3v10.2
			c0,0.7-0.6,1.3-1.3,1.3H92.5z"/>
		<path fill="#FFFFFF" d="M102.1,207c0.5,0,0.8,0.4,0.8,0.8v10.2c0,0.4-0.4,0.8-0.8,0.8h-9.7c-0.4,0-0.8-0.4-0.8-0.8v-10.2
			c0-0.4,0.4-0.8,0.8-0.8H102.1 M102.1,206h-9.7c-1,0-1.8,0.8-1.8,1.8v10.2c0,1,0.8,1.8,1.8,1.8h9.7c1,0,1.8-0.8,1.8-1.8v-10.2
			C104,206.9,103.1,206,102.1,206L102.1,206z"/>
	</g>
	<g>
		<path fill="#FCFAFA" d="M223.5,253.5c-0.7,0-1.3-0.6-1.3-1.3V242c0-0.7,0.6-1.3,1.3-1.3h9.7c0.7,0,1.3,0.6,1.3,1.3v10.2
			c0,0.7-0.6,1.3-1.3,1.3H223.5z"/>
		<path fill="#FFFFFF" d="M233.2,241.1c0.4,0,0.8,0.4,0.8,0.8v10.2c0,0.4-0.4,0.8-0.8,0.8h-9.7c-0.5,0-0.8-0.4-0.8-0.8V242
			c0-0.4,0.4-0.8,0.8-0.8H233.2 M233.2,240.1h-9.7c-1,0-1.8,0.8-1.8,1.8v10.2c0,1,0.8,1.8,1.8,1.8h9.7c1,0,1.8-0.8,1.8-1.8V242
			C235,241,234.2,240.1,233.2,240.1L233.2,240.1z"/>
	</g>
	<g>
		<path fill="#FCFAFA" d="M76.1,253.5c-0.7,0-1.3-0.6-1.3-1.3V242c0-0.7,0.6-1.3,1.3-1.3h107.8c0.7,0,1.3,0.6,1.3,1.3v10.2
			c0,0.7-0.6,1.3-1.3,1.3H76.1z"/>
		<path fill="#FFFFFF" d="M183.9,241.1c0.5,0,0.8,0.4,0.8,0.8v10.2c0,0.5-0.4,0.8-0.8,0.8H76.1c-0.5,0-0.8-0.4-0.8-0.8V242
			c0-0.5,0.4-0.8,0.8-0.8H183.9 M183.9,240.1H76.1c-1,0-1.8,0.8-1.8,1.8v10.2c0,1,0.8,1.8,1.8,1.8h107.8c1,0,1.8-0.8,1.8-1.8V242
			C185.8,241,184.9,240.1,183.9,240.1L183.9,240.1z"/>
	</g>
	<g>
		<path fill="#FCFAFA" d="M26.9,253.5c-0.7,0-1.3-0.6-1.3-1.3V242c0-0.7,0.6-1.3,1.3-1.3h9.7c0.7,0,1.3,0.6,1.3,1.3v10.2
			c0,0.7-0.6,1.3-1.3,1.3H26.9z"/>
		<path fill="#FFFFFF" d="M36.6,241.1c0.4,0,0.8,0.4,0.8,0.8v10.2c0,0.4-0.4,0.8-0.8,0.8h-9.7c-0.4,0-0.8-0.4-0.8-0.8V242
			c0-0.4,0.4-0.8,0.8-0.8H36.6 M36.6,240.1h-9.7c-1,0-1.8,0.8-1.8,1.8v10.2c0,1,0.8,1.8,1.8,1.8h9.7c1,0,1.8-0.8,1.8-1.8V242
			C38.4,241,37.6,240.1,36.6,240.1L36.6,240.1z"/>
	</g>
	<g>
		<path fill="#FCFAFA" d="M158,236.5c-0.7,0-1.3-0.6-1.3-1.3v-10.2c0-0.7,0.6-1.3,1.3-1.3h9.7c0.7,0,1.3,0.6,1.3,1.3v10.2
			c0,0.7-0.6,1.3-1.3,1.3H158z"/>
		<path fill="#FFFFFF" d="M167.7,224.1c0.4,0,0.8,0.4,0.8,0.8v10.2c0,0.4-0.4,0.8-0.8,0.8H158c-0.4,0-0.8-0.4-0.8-0.8v-10.2
			c0-0.4,0.4-0.8,0.8-0.8H167.7 M167.7,223.1H158c-1,0-1.8,0.8-1.8,1.8v10.2c0,1,0.8,1.8,1.8,1.8h9.7c1,0,1.8-0.8,1.8-1.8v-10.2
			C169.5,223.9,168.7,223.1,167.7,223.1L167.7,223.1z"/>
	</g>
	<g>
		<path fill="#FCFAFA" d="M158,219.4c-0.7,0-1.3-0.6-1.3-1.3v-10.2c0-0.7,0.6-1.3,1.3-1.3h9.7c0.7,0,1.3,0.6,1.3,1.3v10.2
			c0,0.7-0.6,1.3-1.3,1.3H158z"/>
		<path fill="#FFFFFF" d="M167.7,207c0.4,0,0.8,0.4,0.8,0.8v10.2c0,0.4-0.4,0.8-0.8,0.8H158c-0.4,0-0.8-0.4-0.8-0.8v-10.2
			c0-0.4,0.4-0.8,0.8-0.8H167.7 M167.7,206H158c-1,0-1.8,0.8-1.8,1.8v10.2c0,1,0.8,1.8,1.8,1.8h9.7c1,0,1.8-0.8,1.8-1.8v-10.2
			C169.5,206.9,168.7,206,167.7,206L167.7,206z"/>
	</g>
	<g>
		<path fill="#FCFAFA" d="M108.8,219.4c-0.7,0-1.3-0.6-1.3-1.3v-10.2c0-0.7,0.6-1.3,1.3-1.3h9.7c0.7,0,1.3,0.6,1.3,1.3v10.2
			c0,0.7-0.6,1.3-1.3,1.3H108.8z"/>
		<path fill="#FFFFFF" d="M118.5,207c0.4,0,0.8,0.4,0.8,0.8v10.2c0,0.4-0.4,0.8-0.8,0.8h-9.7c-0.4,0-0.8-0.4-0.8-0.8v-10.2
			c0-0.4,0.4-0.8,0.8-0.8H118.5 M118.5,206h-9.7c-1,0-1.8,0.8-1.8,1.8v10.2c0,1,0.8,1.8,1.8,1.8h9.7c1,0,1.8-0.8,1.8-1.8v-10.2
			C120.3,206.9,119.5,206,118.5,206L118.5,206z"/>
	</g>
	<g>
		<path fill="#FCFAFA" d="M190.7,253.5c-0.7,0-1.3-0.6-1.3-1.3V242c0-0.7,0.6-1.3,1.3-1.3h9.7c0.7,0,1.3,0.6,1.3,1.3v10.2
			c0,0.7-0.6,1.3-1.3,1.3H190.7z"/>
		<path fill="#FFFFFF" d="M200.4,241.1c0.4,0,0.8,0.4,0.8,0.8v10.2c0,0.4-0.4,0.8-0.8,0.8h-9.7c-0.5,0-0.8-0.4-0.8-0.8V242
			c0-0.4,0.4-0.8,0.8-0.8H200.4 M200.4,240.1h-9.7c-1,0-1.8,0.8-1.8,1.8v10.2c0,1,0.8,1.8,1.8,1.8h9.7c1,0,1.8-0.8,1.8-1.8V242
			C202.2,241,201.4,240.1,200.4,240.1L200.4,240.1z"/>
	</g>
	<g>
		<path fill="#FCFAFA" d="M207.1,236.5c-0.7,0-1.3-0.6-1.3-1.3v-10.2c0-0.7,0.6-1.3,1.3-1.3h9.7c0.7,0,1.3,0.6,1.3,1.3v10.2
			c0,0.7-0.6,1.3-1.3,1.3H207.1z"/>
		<path fill="#FFFFFF" d="M216.8,224.1c0.4,0,0.8,0.4,0.8,0.8v10.2c0,0.4-0.4,0.8-0.8,0.8h-9.7c-0.5,0-0.8-0.4-0.8-0.8v-10.2
			c0-0.4,0.4-0.8,0.8-0.8H216.8 M216.8,223.1h-9.7c-1,0-1.8,0.8-1.8,1.8v10.2c0,1,0.8,1.8,1.8,1.8h9.7c1,0,1.8-0.8,1.8-1.8v-10.2
			C218.6,223.9,217.8,223.1,216.8,223.1L216.8,223.1z"/>
	</g>
	<g>
		<path fill="#FCFAFA" d="M239.9,236.5c-0.7,0-1.3-0.6-1.3-1.3v-10.2c0-0.7,0.6-1.3,1.3-1.3h9.7c0.7,0,1.3,0.6,1.3,1.3v10.2
			c0,0.7-0.6,1.3-1.3,1.3H239.9z"/>
		<path fill="#FFFFFF" d="M249.6,224.1c0.4,0,0.8,0.4,0.8,0.8v10.2c0,0.4-0.4,0.8-0.8,0.8h-9.7c-0.4,0-0.8-0.4-0.8-0.8v-10.2
			c0-0.4,0.4-0.8,0.8-0.8H249.6 M249.6,223.1h-9.7c-1,0-1.8,0.8-1.8,1.8v10.2c0,1,0.8,1.8,1.8,1.8h9.7c1,0,1.8-0.8,1.8-1.8v-10.2
			C251.4,223.9,250.6,223.1,249.6,223.1L249.6,223.1z"/>
	</g>
	<g>
		<path fill="#FCFAFA" d="M43.3,219.4c-0.7,0-1.3-0.6-1.3-1.3v-10.2c0-0.7,0.6-1.3,1.3-1.3H53c0.7,0,1.3,0.6,1.3,1.3v10.2
			c0,0.7-0.6,1.3-1.3,1.3H43.3z"/>
		<path fill="#FFFFFF" d="M53,207c0.5,0,0.8,0.4,0.8,0.8v10.2c0,0.4-0.4,0.8-0.8,0.8h-9.7c-0.4,0-0.8-0.4-0.8-0.8v-10.2
			c0-0.4,0.4-0.8,0.8-0.8H53 M53,206h-9.7c-1,0-1.8,0.8-1.8,1.8v10.2c0,1,0.8,1.8,1.8,1.8H53c1,0,1.8-0.8,1.8-1.8v-10.2
			C54.8,206.9,54,206,53,206L53,206z"/>
	</g>
	<g>
		<path fill="#FCFAFA" d="M239.9,253.5c-0.7,0-1.3-0.6-1.3-1.3V242c0-0.7,0.6-1.3,1.3-1.3h9.7c0.7,0,1.3,0.6,1.3,1.3v10.2
			c0,0.7-0.6,1.3-1.3,1.3H239.9z"/>
		<path fill="#FFFFFF" d="M249.6,241.1c0.4,0,0.8,0.4,0.8,0.8v10.2c0,0.4-0.4,0.8-0.8,0.8h-9.7c-0.4,0-0.8-0.4-0.8-0.8V242
			c0-0.4,0.4-0.8,0.8-0.8H249.6 M249.6,240.1h-9.7c-1,0-1.8,0.8-1.8,1.8v10.2c0,1,0.8,1.8,1.8,1.8h9.7c1,0,1.8-0.8,1.8-1.8V242
			C251.4,241,250.6,240.1,249.6,240.1L249.6,240.1z"/>
	</g>
	<g>
		<path fill="#FCFAFA" d="M257.4,236.5c-1.2,0-2.1-1-2.1-2.1v-13.6c0-0.7-0.6-1.3-1.3-1.3h-13.5c-1.2,0-2.1-1-2.1-2.1v-8.6
			c0-1.2,1-2.1,2.1-2.1h24.7c1.2,0,2.1,1,2.1,2.1v9.4c0,0.1,0,0.2,0,0.2l0,0.1l0,0.1c0,0.1,0,0.1,0,0.2v15.6c0,1.2-1,2.1-2.1,2.1
			H257.4z"/>
		<path fill="#FFFFFF" d="M265.1,207c0.9,0,1.6,0.7,1.6,1.6v9.4c0,0.1,0,0.1,0,0.1c0,0,0,0,0,0l-0.1,0.3l0.1,0.3c0,0,0,0,0,0.1v15.5
			c0,0.9-0.7,1.6-1.6,1.6h-7.7c-0.9,0-1.6-0.7-1.6-1.6v-13.6c0-1-0.8-1.8-1.8-1.8h-13.5c-0.9,0-1.6-0.7-1.6-1.6v-8.6
			c0-0.9,0.7-1.6,1.6-1.6H265.1 M265.1,206h-24.7c-1.5,0-2.6,1.2-2.6,2.6v8.6c0,1.5,1.2,2.6,2.6,2.6h13.5c0.5,0,0.8,0.4,0.8,0.8
			v13.6c0,1.5,1.2,2.6,2.6,2.6h7.7c1.5,0,2.6-1.2,2.6-2.6v-15.5c0-0.1,0-0.3,0-0.4c0-0.1,0-0.2,0-0.4v-9.4
			C267.8,207.2,266.6,206,265.1,206L265.1,206z"/>
	</g>
	<g>
		<path fill="#FCFAFA" d="M26.9,219.4c-0.7,0-1.3-0.6-1.3-1.3v-10.2c0-0.7,0.6-1.3,1.3-1.3h9.7c0.7,0,1.3,0.6,1.3,1.3v10.2
			c0,0.7-0.6,1.3-1.3,1.3H26.9z"/>
		<path fill="#FFFFFF" d="M36.6,207c0.4,0,0.8,0.4,0.8,0.8v10.2c0,0.4-0.4,0.8-0.8,0.8h-9.7c-0.4,0-0.8-0.4-0.8-0.8v-10.2
			c0-0.4,0.4-0.8,0.8-0.8H36.6 M36.6,206h-9.7c-1,0-1.8,0.8-1.8,1.8v10.2c0,1,0.8,1.8,1.8,1.8h9.7c1,0,1.8-0.8,1.8-1.8v-10.2
			C38.4,206.9,37.6,206,36.6,206L36.6,206z"/>
	</g>
	<g>
		<path fill="#FCFAFA" d="M141.6,236.5c-0.7,0-1.3-0.6-1.3-1.3v-10.2c0-0.7,0.6-1.3,1.3-1.3h9.7c0.7,0,1.3,0.6,1.3,1.3v10.2
			c0,0.7-0.6,1.3-1.3,1.3H141.6z"/>
		<path fill="#FFFFFF" d="M151.3,224.1c0.4,0,0.8,0.4,0.8,0.8v10.2c0,0.4-0.4,0.8-0.8,0.8h-9.7c-0.4,0-0.8-0.4-0.8-0.8v-10.2
			c0-0.4,0.4-0.8,0.8-0.8H151.3 M151.3,223.1h-9.7c-1,0-1.8,0.8-1.8,1.8v10.2c0,1,0.8,1.8,1.8,1.8h9.7c1,0,1.8-0.8,1.8-1.8v-10.2
			C153.1,223.9,152.3,223.1,151.3,223.1L151.3,223.1z"/>
	</g>
	<g>
		<path fill="#FCFAFA" d="M10.6,253.5c-0.7,0-1.3-0.6-1.3-1.3V242c0-0.7,0.6-1.3,1.3-1.3h9.7c0.7,0,1.3,0.6,1.3,1.3v10.2
			c0,0.7-0.6,1.3-1.3,1.3H10.6z"/>
		<path fill="#FFFFFF" d="M20.2,241.1c0.4,0,0.8,0.4,0.8,0.8v10.2c0,0.4-0.4,0.8-0.8,0.8h-9.7c-0.4,0-0.8-0.4-0.8-0.8V242
			c0-0.4,0.4-0.8,0.8-0.8H20.2 M20.2,240.1h-9.7c-1,0-1.8,0.8-1.8,1.8v10.2c0,1,0.8,1.8,1.8,1.8h9.7c1,0,1.8-0.8,1.8-1.8V242
			C22.1,241,21.2,240.1,20.2,240.1L20.2,240.1z"/>
	</g>
	<g>
		<path fill="#FCFAFA" d="M174.4,219.4c-0.7,0-1.3-0.6-1.3-1.3v-10.2c0-0.7,0.6-1.3,1.3-1.3h9.7c0.7,0,1.3,0.6,1.3,1.3v10.2
			c0,0.7-0.6,1.3-1.3,1.3H174.4z"/>
		<path fill="#FFFFFF" d="M184,207c0.4,0,0.8,0.4,0.8,0.8v10.2c0,0.4-0.4,0.8-0.8,0.8h-9.7c-0.5,0-0.8-0.4-0.8-0.8v-10.2
			c0-0.4,0.4-0.8,0.8-0.8H184 M184,206h-9.7c-1,0-1.8,0.8-1.8,1.8v10.2c0,1,0.8,1.8,1.8,1.8h9.7c1,0,1.8-0.8,1.8-1.8v-10.2
			C185.8,206.9,185,206,184,206L184,206z"/>
	</g>
	<g>
		<path fill="#FCFAFA" d="M256.3,253.5c-0.7,0-1.3-0.6-1.3-1.3V242c0-0.7,0.6-1.3,1.3-1.3h9.7c0.7,0,1.3,0.6,1.3,1.3v10.2
			c0,0.7-0.6,1.3-1.3,1.3H256.3z"/>
		<path fill="#FFFFFF" d="M265.9,241.1c0.4,0,0.8,0.4,0.8,0.8v10.2c0,0.4-0.4,0.8-0.8,0.8h-9.7c-0.4,0-0.8-0.4-0.8-0.8V242
			c0-0.4,0.4-0.8,0.8-0.8H265.9 M265.9,240.1h-9.7c-1,0-1.8,0.8-1.8,1.8v10.2c0,1,0.8,1.8,1.8,1.8h9.7c1,0,1.8-0.8,1.8-1.8V242
			C267.8,241,266.9,240.1,265.9,240.1L265.9,240.1z"/>
	</g>
	<g>
		<path fill="#FCFAFA" d="M10.6,236.5c-0.7,0-1.3-0.6-1.3-1.3v-10.2c0-0.7,0.6-1.3,1.3-1.3h9.7c0.7,0,1.3,0.6,1.3,1.3v10.2
			c0,0.7-0.6,1.3-1.3,1.3H10.6z"/>
		<path fill="#FFFFFF" d="M20.2,224.1c0.4,0,0.8,0.4,0.8,0.8v10.2c0,0.4-0.4,0.8-0.8,0.8h-9.7c-0.4,0-0.8-0.4-0.8-0.8v-10.2
			c0-0.4,0.4-0.8,0.8-0.8H20.2 M20.2,223.1h-9.7c-1,0-1.8,0.8-1.8,1.8v10.2c0,1,0.8,1.8,1.8,1.8h9.7c1,0,1.8-0.8,1.8-1.8v-10.2
			C22.1,223.9,21.2,223.1,20.2,223.1L20.2,223.1z"/>
	</g>
	<g>
		<path fill="#FCFAFA" d="M43.3,236.5c-0.7,0-1.3-0.6-1.3-1.3v-10.2c0-0.7,0.6-1.3,1.3-1.3H53c0.7,0,1.3,0.6,1.3,1.3v10.2
			c0,0.7-0.6,1.3-1.3,1.3H43.3z"/>
		<path fill="#FFFFFF" d="M53,224.1c0.5,0,0.8,0.4,0.8,0.8v10.2c0,0.4-0.4,0.8-0.8,0.8h-9.7c-0.4,0-0.8-0.4-0.8-0.8v-10.2
			c0-0.4,0.4-0.8,0.8-0.8H53 M53,223.1h-9.7c-1,0-1.8,0.8-1.8,1.8v10.2c0,1,0.8,1.8,1.8,1.8H53c1,0,1.8-0.8,1.8-1.8v-10.2
			C54.8,223.9,54,223.1,53,223.1L53,223.1z"/>
	</g>
	<g>
		<path fill="#FCFAFA" d="M26.9,236.5c-0.7,0-1.3-0.6-1.3-1.3v-10.2c0-0.7,0.6-1.3,1.3-1.3h9.7c0.7,0,1.3,0.6,1.3,1.3v10.2
			c0,0.7-0.6,1.3-1.3,1.3H26.9z"/>
		<path fill="#FFFFFF" d="M36.6,224.1c0.4,0,0.8,0.4,0.8,0.8v10.2c0,0.4-0.4,0.8-0.8,0.8h-9.7c-0.4,0-0.8-0.4-0.8-0.8v-10.2
			c0-0.4,0.4-0.8,0.8-0.8H36.6 M36.6,223.1h-9.7c-1,0-1.8,0.8-1.8,1.8v10.2c0,1,0.8,1.8,1.8,1.8h9.7c1,0,1.8-0.8,1.8-1.8v-10.2
			C38.4,223.9,37.6,223.1,36.6,223.1L36.6,223.1z"/>
	</g>
	<g>
		<path fill="#FCFAFA" d="M76.1,219.4c-0.7,0-1.3-0.6-1.3-1.3v-10.2c0-0.7,0.6-1.3,1.3-1.3h9.7c0.7,0,1.3,0.6,1.3,1.3v10.2
			c0,0.7-0.6,1.3-1.3,1.3H76.1z"/>
		<path fill="#FFFFFF" d="M85.8,207c0.5,0,0.8,0.4,0.8,0.8v10.2c0,0.4-0.4,0.8-0.8,0.8h-9.7c-0.4,0-0.8-0.4-0.8-0.8v-10.2
			c0-0.4,0.4-0.8,0.8-0.8H85.8 M85.8,206h-9.7c-1,0-1.8,0.8-1.8,1.8v10.2c0,1,0.8,1.8,1.8,1.8h9.7c1,0,1.8-0.8,1.8-1.8v-10.2
			C87.6,206.9,86.8,206,85.8,206L85.8,206z"/>
	</g>
	<g>
		<path fill="#FCFAFA" d="M125.2,219.4c-0.7,0-1.3-0.6-1.3-1.3v-10.2c0-0.7,0.6-1.3,1.3-1.3h9.7c0.7,0,1.3,0.6,1.3,1.3v10.2
			c0,0.7-0.6,1.3-1.3,1.3H125.2z"/>
		<path fill="#FFFFFF" d="M134.9,207c0.4,0,0.8,0.4,0.8,0.8v10.2c0,0.4-0.4,0.8-0.8,0.8h-9.7c-0.4,0-0.8-0.4-0.8-0.8v-10.2
			c0-0.4,0.4-0.8,0.8-0.8H134.9 M134.9,206h-9.7c-1,0-1.8,0.8-1.8,1.8v10.2c0,1,0.8,1.8,1.8,1.8h9.7c1,0,1.8-0.8,1.8-1.8v-10.2
			C136.7,206.9,135.9,206,134.9,206L134.9,206z"/>
	</g>
	<g>
		<path fill="#FCFAFA" d="M59.7,219.4c-0.7,0-1.3-0.6-1.3-1.3v-10.2c0-0.7,0.6-1.3,1.3-1.3h9.7c0.7,0,1.3,0.6,1.3,1.3v10.2
			c0,0.7-0.6,1.3-1.3,1.3H59.7z"/>
		<path fill="#FFFFFF" d="M69.4,207c0.5,0,0.8,0.4,0.8,0.8v10.2c0,0.4-0.4,0.8-0.8,0.8h-9.7c-0.4,0-0.8-0.4-0.8-0.8v-10.2
			c0-0.4,0.4-0.8,0.8-0.8H69.4 M69.4,206h-9.7c-1,0-1.8,0.8-1.8,1.8v10.2c0,1,0.8,1.8,1.8,1.8h9.7c1,0,1.8-0.8,1.8-1.8v-10.2
			C71.2,206.9,70.4,206,69.4,206L69.4,206z"/>
	</g>
	<g>
		<path fill="#FCFAFA" d="M59.7,253.5c-0.7,0-1.3-0.6-1.3-1.3V242c0-0.7,0.6-1.3,1.3-1.3h9.7c0.7,0,1.3,0.6,1.3,1.3v10.2
			c0,0.7-0.6,1.3-1.3,1.3H59.7z"/>
		<path fill="#FFFFFF" d="M69.4,241.1c0.5,0,0.8,0.4,0.8,0.8v10.2c0,0.4-0.4,0.8-0.8,0.8h-9.7c-0.4,0-0.8-0.4-0.8-0.8V242
			c0-0.4,0.4-0.8,0.8-0.8H69.4 M69.4,240.1h-9.7c-1,0-1.8,0.8-1.8,1.8v10.2c0,1,0.8,1.8,1.8,1.8h9.7c1,0,1.8-0.8,1.8-1.8V242
			C71.2,241,70.4,240.1,69.4,240.1L69.4,240.1z"/>
	</g>
	<g>
		<path fill="#FCFAFA" d="M76.1,236.5c-0.7,0-1.3-0.6-1.3-1.3v-10.2c0-0.7,0.6-1.3,1.3-1.3h9.7c0.7,0,1.3,0.6,1.3,1.3v10.2
			c0,0.7-0.6,1.3-1.3,1.3H76.1z"/>
		<path fill="#FFFFFF" d="M85.8,224.1c0.5,0,0.8,0.4,0.8,0.8v10.2c0,0.4-0.4,0.8-0.8,0.8h-9.7c-0.4,0-0.8-0.4-0.8-0.8v-10.2
			c0-0.4,0.4-0.8,0.8-0.8H85.8 M85.8,223.1h-9.7c-1,0-1.8,0.8-1.8,1.8v10.2c0,1,0.8,1.8,1.8,1.8h9.7c1,0,1.8-0.8,1.8-1.8v-10.2
			C87.6,223.9,86.8,223.1,85.8,223.1L85.8,223.1z"/>
	</g>
	<g>
		<path fill="#FCFAFA" d="M146.3,128.1c-1.2,0-2.1-0.3-2.9-1c-0.8-0.7-1.1-1.3-1.1-2c0-0.6,0.3-1.3,0.8-2c0.8-1,1.9-1.5,3.2-1.5
			c0.8,0,1.6,0.2,2.2,0.6c0.6,0.4,1.1,0.9,1.4,1.5c0.4,0.7,0.5,1.2,0.5,1.4c0,0.7-0.4,1.4-1.1,2.1
			C148.5,127.8,147.5,128.1,146.3,128.1z"/>
		<path fill="#FFFFFF" d="M146.3,122.1c0.8,0,1.4,0.2,1.9,0.5c0.6,0.4,0.9,0.8,1.2,1.3c0.3,0.7,0.4,1,0.4,1.2c0,0.6-0.3,1.1-1,1.7
			c-0.7,0.6-1.5,0.9-2.6,0.9c-1,0-1.9-0.3-2.6-0.9c-0.6-0.6-1-1.1-1-1.6c0-0.5,0.2-1.1,0.7-1.7C144.2,122.5,145.1,122.1,146.3,122.1
			 M146.3,121.1c-1.5,0-2.7,0.6-3.6,1.7c-0.6,0.8-0.9,1.5-0.9,2.3c0,0.8,0.4,1.6,1.3,2.4c0.9,0.8,2,1.2,3.2,1.2
			c1.3,0,2.4-0.4,3.2-1.2s1.3-1.6,1.3-2.4c0-0.4-0.2-1-0.5-1.6c-0.3-0.7-0.9-1.2-1.6-1.7C148.1,121.3,147.3,121.1,146.3,121.1
			L146.3,121.1z"/>
	</g>
	<g>
		<path fill="#FCFAFA" d="M125,92.1c-0.8,0-1.4-0.1-1.8-0.4c-0.2-0.1-0.2-0.2-0.2-0.3c0-0.2,0.2-0.5,0.6-0.8
			c0.8-0.5,1.8-0.8,2.9-0.8c0.9,0,1.9,0.1,2.9,0.3v0.6c-0.6,0.4-1.4,0.7-2.1,1C126.4,92,125.7,92.1,125,92.1z"/>
		<path fill="#FFFFFF" d="M126.6,90.3c0.7,0,1.5,0.1,2.3,0.2c-0.5,0.3-1.1,0.5-1.7,0.7c-0.8,0.3-1.6,0.4-2.2,0.4
			c-0.6,0-1.1-0.1-1.4-0.3c0.1-0.1,0.2-0.2,0.3-0.3C124.6,90.6,125.5,90.3,126.6,90.3 M126.6,89.3c-1.2,0-2.3,0.3-3.2,0.9
			c-0.6,0.4-0.8,0.8-0.8,1.2c0,0.3,0.1,0.5,0.4,0.7c0.5,0.3,1.2,0.5,2.1,0.5c0.7,0,1.6-0.1,2.5-0.4c0.9-0.3,1.8-0.7,2.5-1.2v-1.3
			C128.7,89.5,127.6,89.3,126.6,89.3L126.6,89.3z"/>
	</g>
	<g>
		<path fill="#FCFAFA" d="M146.3,92.1c-1.3,0-2.3-0.3-3-1c-0.7-0.6-1-1.4-1-2.4c0-1.1,0.4-2,1.2-2.8c0.8-0.8,1.7-1.2,2.9-1.2
			c1.2,0,2.1,0.4,2.9,1.2c0.8,0.8,1.2,1.7,1.2,2.9c0,1-0.3,1.7-1,2.4C148.7,91.8,147.6,92.1,146.3,92.1z"/>
		<path fill="#FFFFFF" d="M146.3,85.3c1,0,1.9,0.3,2.6,1c0.7,0.7,1,1.5,1,2.5c0,0.8-0.3,1.5-0.9,2c-0.6,0.5-1.5,0.8-2.7,0.8
			c-1.2,0-2.1-0.3-2.7-0.8c-0.6-0.5-0.9-1.2-0.9-2c0-1,0.3-1.8,1-2.5C144.5,85.6,145.3,85.3,146.3,85.3 M146.3,84.3
			c-1.3,0-2.4,0.4-3.3,1.3c-0.9,0.9-1.3,1.9-1.3,3.2c0,1.1,0.4,2.1,1.2,2.8c0.8,0.7,1.9,1.1,3.4,1.1c1.5,0,2.6-0.4,3.4-1.1
			c0.8-0.7,1.2-1.6,1.2-2.7c0-1.3-0.4-2.3-1.3-3.2C148.7,84.7,147.6,84.3,146.3,84.3L146.3,84.3z"/>
	</g>
	<g>
		<path fill="#FCFAFA" d="M163.1,55.3c-1,0-1.9-0.4-2.6-1.1c-0.7-0.7-1.1-1.6-1.1-2.6c0-1,0.4-1.8,1.1-2.6c0.7-0.7,1.6-1.1,2.6-1.1
			s1.9,0.4,2.6,1.1c0.7,0.7,1.1,1.6,1.1,2.6c0,1-0.4,1.9-1.1,2.6C165,54.9,164.2,55.3,163.1,55.3z"/>
		<path fill="#FFFFFF" d="M163.1,48.4c0.9,0,1.7,0.3,2.3,1c0.6,0.6,1,1.4,1,2.2c0,0.9-0.3,1.6-1,2.2c-0.6,0.6-1.4,0.9-2.3,0.9
			c-0.9,0-1.7-0.3-2.3-0.9c-0.6-0.6-1-1.4-1-2.2c0-0.9,0.3-1.6,1-2.2C161.5,48.7,162.2,48.4,163.1,48.4 M163.1,47.4
			c-1.2,0-2.2,0.4-3,1.2c-0.8,0.8-1.3,1.8-1.3,2.9c0,1.1,0.4,2.1,1.3,2.9c0.8,0.8,1.8,1.2,3,1.2c1.2,0,2.2-0.4,3-1.2
			c0.8-0.8,1.3-1.8,1.3-2.9c0-1.1-0.4-2.1-1.3-2.9C165.3,47.8,164.3,47.4,163.1,47.4L163.1,47.4z"/>
	</g>
	<g>
		<path fill="#FCFAFA" d="M104.9,49.6c0.3-0.4,0.7-0.8,1.2-1c0.7-0.4,1.5-0.6,2.4-0.6c1,0,1.8,0.2,2.5,0.6c0.4,0.3,0.8,0.6,1.2,1
			H104.9z"/>
		<path fill="#FFFFFF" d="M108.6,48.5c0.9,0,1.6,0.2,2.2,0.5c0.1,0,0.1,0.1,0.2,0.1h-4.7c0.1,0,0.1-0.1,0.2-0.1
			C107,48.6,107.7,48.5,108.6,48.5 M108.6,47.5c-1,0-1.9,0.2-2.7,0.7c-0.8,0.4-1.4,1.1-1.9,2h9.1c-0.5-0.9-1.1-1.5-1.8-2
			C110.5,47.7,109.6,47.5,108.6,47.5L108.6,47.5z"/>
	</g>
	<g>
		<path fill="#FCFAFA" d="M89.1,122.2v-4.8h3c1.1,0,1.9,0.2,2.4,0.7c0.5,0.4,0.8,0.9,0.8,1.5c0,0.7-0.3,1.3-1,1.8
			c-0.7,0.5-1.7,0.8-2.9,0.8H89.1z"/>
		<path fill="#FFFFFF" d="M92.2,117.9c0.9,0,1.6,0.2,2.1,0.6c0.5,0.5,0.6,0.9,0.6,1.1c0,0.3-0.1,0.8-0.8,1.4
			c-0.6,0.5-1.5,0.7-2.6,0.7h-1.8v-3.8H92.2 M92.2,116.9h-3.5v5.8h2.8c1.3,0,2.4-0.3,3.2-0.9c0.8-0.6,1.2-1.3,1.2-2.2
			c0-0.7-0.3-1.3-1-1.9C94.2,117.2,93.3,116.9,92.2,116.9L92.2,116.9z"/>
	</g>
	<g>
		<path fill="#FCFAFA" d="M87.1,54.8v-11h2.7c1,0,1.8,0.2,2.5,0.6c0.6,0.4,1.2,1.1,1.8,2.1c0.3,0.7,0.5,1.4,0.5,2.3v1.5
			c0,1-0.2,1.9-0.5,2.5c-0.4,0.6-0.9,1.2-1.6,1.6c-0.5,0.3-1.4,0.5-2.5,0.5H87.1z"/>
		<path fill="#FFFFFF" d="M89.8,44.3c0.9,0,1.6,0.2,2.2,0.5c0.6,0.3,1.1,1,1.6,1.9c0.3,0.6,0.4,1.3,0.4,2.1v1.5
			c0,0.9-0.2,1.7-0.5,2.3c-0.3,0.6-0.8,1-1.5,1.4c-0.3,0.2-1,0.4-2.3,0.4h-2.3v-10H89.8 M89.8,43.3h-3.2v12h3.3
			c1.2,0,2.1-0.2,2.8-0.5c0.8-0.5,1.4-1,1.8-1.8c0.4-0.7,0.6-1.6,0.6-2.8v-1.5c0-1-0.2-1.8-0.6-2.5c-0.6-1.1-1.2-1.9-2-2.3
			C91.8,43.5,90.9,43.3,89.8,43.3L89.8,43.3z"/>
	</g>
	<g>
		<path fill="#FCFAFA" d="M164,128.9c-1.3,0-2.3-0.4-3.1-1.1c-0.8-0.7-1.2-1.5-1.2-2.3c0-1,0.4-1.9,1.2-2.7c0.8-0.8,1.9-1.2,3.1-1.2
			c1.4,0,2.6,0.5,3.4,1.5c0.6,0.7,0.9,1.5,0.9,2.4c0,0.8-0.4,1.6-1.2,2.3C166.3,128.5,165.3,128.9,164,128.9z"/>
		<path fill="#FFFFFF" d="M164,122.1c1.3,0,2.3,0.4,3.1,1.3c0.6,0.6,0.8,1.3,0.8,2.1c0,0.7-0.4,1.3-1.1,2c-0.8,0.7-1.7,1-2.8,1
			c-1.1,0-2-0.3-2.8-1c-0.7-0.6-1.1-1.3-1.1-1.9c0-0.9,0.4-1.7,1.1-2.4C162,122.4,162.9,122.1,164,122.1 M164,121.1
			c-1.4,0-2.5,0.4-3.5,1.3c-0.9,0.9-1.4,1.9-1.4,3.1c0,1,0.5,1.9,1.4,2.7c0.9,0.8,2.1,1.3,3.5,1.3c1.4,0,2.5-0.4,3.5-1.3
			c0.9-0.8,1.4-1.7,1.4-2.7c0-1-0.4-1.9-1.1-2.7C166.9,121.6,165.6,121.1,164,121.1L164,121.1z"/>
	</g>
	<g>
		<path fill="#FCFAFA" d="M196.9,123.2c0.3-0.4,0.7-0.8,1.2-1c0.7-0.4,1.5-0.6,2.4-0.6c1,0,1.8,0.2,2.5,0.6c0.4,0.3,0.8,0.6,1.2,1
			H196.9z"/>
		<path fill="#FFFFFF" d="M200.6,122.1c0.9,0,1.6,0.2,2.2,0.5c0.1,0,0.1,0.1,0.2,0.1h-4.7c0.1,0,0.1-0.1,0.2-0.1
			C199,122.2,199.7,122.1,200.6,122.1 M200.6,121.1c-1,0-1.9,0.2-2.7,0.7c-0.8,0.4-1.4,1.1-1.9,2h9.1c-0.5-0.9-1.1-1.5-1.8-2
			C202.5,121.3,201.6,121.1,200.6,121.1L200.6,121.1z"/>
	</g>
	<g>
		<path fill="#FCFAFA" d="M32.3,181.5c-13.5,0-24.5-11-24.5-24.5V29c0-13.5,11-24.5,24.5-24.5h214c13.5,0,24.5,11,24.5,24.5v128
			c0,13.5-11,24.5-24.5,24.5H32.3z M138.2,134.8c-0.9,0-1.5,0.2-1.9,0.6c-0.4,0.4-0.6,0.9-0.6,1.5c0,0.6,0.2,1.1,0.6,1.5
			c0.4,0.4,1,0.6,1.9,0.6h5.4c0.9,0,1.5-0.2,1.9-0.6c0.4-0.4,0.6-0.9,0.6-1.5c0-0.6-0.2-1.1-0.6-1.5c-0.4-0.4-1-0.6-1.9-0.6h-1.3
			v-3.7c0.5,0.3,1.1,0.5,1.6,0.7c0.8,0.2,1.6,0.4,2.5,0.4c1.9,0,3.7-0.6,5.2-1.7c1.9-1.4,2.8-3.2,2.8-5.4c0-2-0.8-3.7-2.4-5.2
			c-1.6-1.5-3.5-2.3-5.7-2.3c-0.9,0-1.7,0.1-2.5,0.4c-0.5,0.2-1.1,0.4-1.6,0.7v-0.7h-4.1c-0.9,0-1.5,0.2-1.9,0.6
			c-0.3,0.3-0.5,0.6-0.6,1c-0.2-0.3-0.4-0.5-0.8-0.8c-1-0.8-2.1-1.2-3.2-1.2c-0.7,0-1.5,0.2-2.3,0.5c-0.6,0.3-1.4,0.7-2.4,1.4v-1.5
			h-4.7c-0.9,0-1.5,0.2-1.9,0.6c-0.4,0.4-0.6,0.9-0.6,1.5c0,0.6,0.2,1.1,0.6,1.5c0.4,0.4,1,0.6,1.9,0.6h0.6v6.5h-1.3
			c-0.9,0-1.5,0.2-1.9,0.6c-0.4,0.4-0.6,0.9-0.6,1.5c0,0.6,0.2,1.1,0.6,1.5c0.4,0.4,1,0.6,1.9,0.6h9.3c0.9,0,1.5-0.2,1.9-0.6
			c0.4-0.4,0.6-0.9,0.6-1.5c0-0.6-0.2-1.1-0.6-1.5c-0.4-0.4-1-0.6-1.9-0.6h-3.9v-3.9c1.2-1,2.2-1.7,3-2.2c1-0.6,1.5-0.7,1.7-0.7
			c0.1,0,0.4,0.1,0.8,0.4c0.5,0.5,1,0.7,1.5,0.7c0.6,0,1.1-0.2,1.5-0.6c0.3-0.3,0.5-0.6,0.6-1c0.1,0.1,0.2,0.2,0.3,0.3
			c0.4,0.4,1,0.6,1.9,0.6h0L138.2,134.8L138.2,134.8z M200.5,117.5c-2.2,0-4.1,0.7-5.8,2.1c-1.7,1.4-2.6,3.3-2.6,5.6
			c0,2.2,0.8,4,2.4,5.5c1.6,1.5,3.7,2.2,6.2,2.2c1.5,0,3-0.2,4.6-0.5c1.7-0.4,2.7-0.7,3.2-1.2c0.4-0.4,0.6-0.8,0.6-1.4
			c0-0.6-0.2-1.1-0.6-1.4c-0.4-0.4-0.8-0.6-1.4-0.6c-0.3,0-0.9,0.1-1.7,0.3c-1.8,0.5-3.3,0.7-4.4,0.7c-1.3,0-2.3-0.2-3-0.7
			c-0.5-0.3-0.8-0.6-1.1-1H209v-1.8c0-1.1-0.2-2-0.5-2.8c-0.5-1.1-1.1-2.1-1.9-2.9c-0.6-0.6-1.4-1.1-2.5-1.5
			C203,117.7,201.8,117.5,200.5,117.5z M178.1,132.2c0.6,0.3,1.2,0.5,1.9,0.6c0.8,0.2,1.6,0.2,2.6,0.2c2.3,0,4.2-0.6,5.7-1.7
			c1.1-0.8,1.6-1.9,1.6-3.2c0-0.9-0.3-1.8-1-2.6c-0.6-0.8-1.5-1.4-2.7-1.8c-0.8-0.3-2.3-0.6-4.3-0.9c-1.4-0.2-1.8-0.3-2-0.4
			c-0.2-0.1-0.3-0.2-0.3-0.2c0,0,0.1-0.1,0.2-0.1c0.6-0.3,1.5-0.5,2.6-0.5c0.5,0,1.1,0.1,1.6,0.2c0.4,0.1,0.9,0.3,1.3,0.5
			c0.1,0.4,0.3,0.7,0.7,1c0.4,0.3,0.8,0.5,1.3,0.5c0.7,0,1.3-0.3,1.7-0.9c0.2-0.3,0.3-0.9,0.3-1.6v-0.7c0-0.9-0.2-1.5-0.5-1.9
			c-0.4-0.4-0.9-0.6-1.4-0.6c-0.2,0-0.4,0-0.7,0.1c-0.1,0.1-0.3,0.1-0.4,0.2c-0.6-0.2-1.1-0.4-1.7-0.5c-0.7-0.1-1.4-0.2-2.1-0.2
			c-2.1,0-3.9,0.5-5.3,1.6c-1,0.8-1.6,1.9-1.6,3.1c0,1.2,0.5,2.2,1.4,3.1c0.9,0.8,2.6,1.3,5.2,1.6c2,0.2,2.8,0.5,3.1,0.6
			c0.5,0.3,0.5,0.5,0.5,0.5c0,0,0,0,0,0c0,0,0,0.1-0.3,0.3c-0.7,0.4-1.7,0.6-3,0.6c-0.8,0-1.5-0.1-2.1-0.3c-0.5-0.2-1-0.4-1.4-0.7
			c-0.2-0.5-0.4-0.9-0.7-1.2c-0.3-0.3-0.8-0.4-1.2-0.4c-0.6,0-1.1,0.2-1.5,0.6c-0.4,0.4-0.6,1-0.6,1.9v1c0,0.9,0.2,1.5,0.6,1.9
			c0.4,0.4,0.9,0.6,1.5,0.6c0.2,0,0.5,0,0.7-0.1C177.9,132.3,178,132.2,178.1,132.2z M164,117.5c-1.5,0-2.9,0.4-4.2,1.1
			c-1.4,0.7-2.4,1.7-3.1,3c-0.7,1.3-1.1,2.6-1.1,3.9c0,1.3,0.4,2.5,1.1,3.7c0.7,1.2,1.8,2.1,3.1,2.8c1.3,0.7,2.8,1,4.2,1
			c1.5,0,2.9-0.3,4.3-1c1.4-0.7,2.4-1.6,3.1-2.8c0.7-1.2,1.1-2.4,1.1-3.7c0-1.3-0.4-2.6-1.1-3.9c-0.7-1.3-1.8-2.3-3.1-3
			C166.9,117.9,165.5,117.5,164,117.5z M102.1,128.1c0,0.9,0.2,1.7,0.5,2.3c0.5,0.8,1.1,1.5,1.9,1.9s1.8,0.7,2.9,0.7
			c0.8,0,1.6-0.1,2.4-0.3c0.6-0.2,1.2-0.4,1.9-0.6v0.4h3.4c0.9,0,1.5-0.2,1.9-0.6c0.4-0.4,0.6-0.9,0.6-1.5c0-0.6-0.2-1.1-0.6-1.5
			c-0.3-0.3-0.7-0.5-1.3-0.5v-10.6h-4.7c-0.9,0-1.5,0.2-1.9,0.6c-0.4,0.4-0.6,0.9-0.6,1.5c0,0.6,0.2,1.1,0.6,1.5
			c0.4,0.4,1,0.6,1.9,0.6h0.6v5.5c-0.9,0.5-1.7,0.9-2.3,1.1c-0.7,0.2-1.3,0.3-1.8,0.3c-0.5,0-0.9-0.1-1.1-0.3
			c-0.2-0.2-0.3-0.6-0.3-1.1v-9.6h-4.1c-0.9,0-1.5,0.2-1.9,0.6c-0.4,0.4-0.6,0.9-0.6,1.5c0,0.6,0.2,1.1,0.6,1.5
			c0.4,0.4,1,0.6,1.9,0.6h0V128.1z M85.1,128.4c-0.9,0-1.5,0.2-1.9,0.6c-0.4,0.4-0.6,0.9-0.6,1.5c0,0.6,0.2,1.1,0.6,1.5
			c0.4,0.4,1,0.6,1.9,0.6h6.6c0.9,0,1.5-0.2,1.9-0.6c0.4-0.4,0.6-0.9,0.6-1.5c0-0.6-0.2-1.1-0.6-1.5c-0.4-0.4-1-0.6-1.9-0.6h-2.6
			v-2.2h2.4c1.3,0,2.4-0.2,3.2-0.5c0.8-0.3,1.6-0.8,2.3-1.4c0.8-0.6,1.3-1.3,1.7-1.9c0.4-0.9,0.7-1.8,0.7-2.8c0-1.8-0.7-3.3-2-4.5
			c-1.3-1.2-3.1-1.8-5.3-1.8l-7.1,0c-0.9,0-1.5,0.2-1.9,0.6c-0.4,0.4-0.6,0.9-0.6,1.5s0.2,1.1,0.6,1.5c0.4,0.4,1,0.6,1.9,0.6V128.4z
			 M46.7,128.3c-0.6,0.3-0.9,0.6-1.2,0.9c-0.2,0.3-0.3,0.7-0.3,1.1c0,0.6,0.2,1.1,0.6,1.5c0.4,0.4,0.9,0.6,1.4,0.6
			c0.4,0,0.8-0.2,1.4-0.5l15.6-8.7l-15.6-8.7c-0.6-0.3-1.1-0.5-1.4-0.5c-0.6,0-1,0.2-1.4,0.6s-0.6,0.9-0.6,1.5
			c0,0.4,0.1,0.8,0.3,1.1c0.2,0.3,0.6,0.6,1.2,0.9l9.2,5.1L46.7,128.3z M231.1,98c-0.9,0-1.5,0.2-1.9,0.6c-0.4,0.4-0.6,0.9-0.6,1.5
			c0,0.6,0.2,1.1,0.6,1.5c0.4,0.4,1,0.6,1.9,0.6h6.7c0.9,0,1.5-0.2,1.9-0.6c0.4-0.4,0.6-0.9,0.6-1.5c0-0.7-0.3-1.3-0.9-1.7
			c-0.2-0.1-0.5-0.2-1-0.3l6.6-12.9c0.5-0.1,0.9-0.3,1.2-0.6c0.4-0.4,0.5-0.8,0.5-1.4c0-0.6-0.2-1.1-0.6-1.5c-0.4-0.4-1-0.6-1.9-0.6
			h-2.9c-0.9,0-1.5,0.2-1.9,0.6c-0.4,0.4-0.6,0.9-0.6,1.5c0,0.6,0.2,1.1,0.6,1.5c0.3,0.2,0.6,0.4,1,0.5l-2.8,5.5l-2.8-5.5
			c0.4-0.1,0.8-0.2,1-0.5c0.4-0.4,0.6-0.9,0.6-1.5c0-0.6-0.2-1.1-0.6-1.5c-0.4-0.4-1-0.6-1.9-0.6h-2.8c-0.9,0-1.5,0.2-1.9,0.6
			c-0.4,0.4-0.6,0.9-0.6,1.5c0,0.5,0.2,1,0.5,1.4c0.3,0.3,0.7,0.5,1.2,0.6l5.1,10l-1.5,2.9H231.1z M126.8,85.8
			c-2.4,0-4.4,0.6-5.8,1.8c-1.4,1.2-2.1,2.5-2.1,4c0,1.2,0.6,2.3,1.7,3.3c1.1,0.9,2.6,1.4,4.3,1.4c0.8,0,1.7-0.1,2.6-0.3
			c0.7-0.2,1.3-0.4,1.9-0.6v0.4h4.1c0.9,0,1.5-0.2,1.9-0.6c0.2-0.1,0.3-0.3,0.4-0.5c0.1,0.2,0.2,0.3,0.4,0.5c0.4,0.4,1,0.6,1.9,0.6
			h4.1v-0.4c0.5,0.2,1,0.4,1.6,0.6c0.8,0.2,1.6,0.3,2.5,0.3c2.4,0,4.4-0.7,5.9-2.1c1.5-1.4,2.3-3.2,2.3-5.3c0-2.2-0.8-4.1-2.4-5.7
			c-1.6-1.6-3.5-2.3-5.8-2.3c-0.8,0-1.7,0.1-2.5,0.4c-0.5,0.2-1.1,0.4-1.6,0.7v-6.5h-4.1c-0.9,0-1.5,0.2-1.9,0.6
			c-0.4,0.4-0.6,0.9-0.6,1.5c0,0.6,0.2,1.1,0.6,1.5c0.4,0.4,1,0.6,1.9,0.6h0v12.3h0c-0.9,0-1.5,0.2-1.9,0.6
			c-0.2,0.1-0.3,0.3-0.4,0.5c-0.1-0.2-0.2-0.3-0.4-0.5c-0.4-0.4-1-0.6-1.9-0.6h0v-5.8c0-1.6-0.6-2.9-1.8-3.8
			c-1.1-0.9-2.7-1.3-4.7-1.3c-0.7,0-1.4,0.1-2.2,0.2c-0.8,0.1-1.6,0.3-2.4,0.5c-0.8,0.2-1.1,0.4-1.3,0.5c-0.3,0.2-0.5,0.4-0.6,0.6
			c-0.1,0.3-0.2,0.6-0.2,0.9c0,0.6,0.2,1.1,0.6,1.5c0.4,0.4,0.9,0.6,1.4,0.6c0.3,0,0.8-0.1,1.4-0.2c1.4-0.3,2.6-0.5,3.4-0.5
			c1.3,0,1.8,0.2,2,0.3c0.3,0.2,0.4,0.4,0.4,0.7V86C128.5,85.8,127.5,85.8,126.8,85.8z M214.9,91.4c0,1.3,0.5,2.5,1.6,3.4
			c1,0.9,2.6,1.4,4.6,1.4c1,0,2.3-0.2,3.8-0.6c1.5-0.4,2.6-0.9,3.1-1.4c0.4-0.4,0.6-0.8,0.6-1.4c0-0.6-0.2-1-0.6-1.4
			c-0.4-0.4-0.9-0.6-1.4-0.6c-0.4,0-0.8,0.1-1.4,0.4c-1.2,0.6-2.6,0.9-4.1,0.9c-1.2,0-1.7-0.2-1.9-0.4c-0.1,0-0.2-0.2-0.2-0.9v-5.7
			h5.2c0.9,0,1.5-0.2,1.9-0.6c0.4-0.4,0.6-0.9,0.6-1.5c0-0.6-0.2-1.1-0.6-1.5c-0.4-0.4-1-0.6-1.9-0.6H219v-2.3
			c0-0.9-0.2-1.5-0.6-1.9c-0.4-0.4-0.9-0.6-1.5-0.6c-0.6,0-1.1,0.2-1.5,0.6c-0.4,0.4-0.6,1-0.6,1.9v2.3h-0.6c-0.9,0-1.5,0.2-1.9,0.6
			c-0.4,0.4-0.6,0.9-0.6,1.5c0,0.6,0.2,1.1,0.6,1.5c0.4,0.4,1,0.6,1.9,0.6h0.6V91.4z M104.5,95.4c0.6,0.3,1.2,0.5,1.9,0.6
			c0.8,0.2,1.6,0.2,2.6,0.2c2.3,0,4.2-0.6,5.7-1.7c1.1-0.8,1.6-1.9,1.6-3.2c0-0.9-0.3-1.8-1-2.6c-0.6-0.8-1.5-1.4-2.7-1.8
			c-0.8-0.3-2.3-0.6-4.4-0.9c-1.4-0.2-1.8-0.3-2-0.4c-0.2-0.1-0.3-0.2-0.3-0.2c0,0,0.1-0.1,0.2-0.1c0.6-0.3,1.5-0.5,2.6-0.5
			c0.5,0,1.1,0.1,1.6,0.2c0.4,0.1,0.9,0.3,1.3,0.5c0.1,0.4,0.3,0.7,0.7,1c0.4,0.3,0.8,0.5,1.3,0.5c0.7,0,1.3-0.3,1.7-0.9
			c0.2-0.3,0.3-0.9,0.3-1.6v-0.7c0-0.9-0.2-1.5-0.5-1.9c-0.4-0.4-0.9-0.6-1.4-0.6c-0.2,0-0.4,0-0.7,0.1c-0.1,0.1-0.3,0.1-0.4,0.2
			c-0.6-0.2-1.1-0.4-1.7-0.5c-0.7-0.1-1.4-0.2-2.1-0.2c-2.1,0-3.9,0.5-5.3,1.6c-1,0.8-1.6,1.9-1.6,3.1c0,1.2,0.5,2.2,1.4,3.1
			c0.9,0.8,2.6,1.3,5.2,1.6c2,0.2,2.8,0.5,3.1,0.6c0.5,0.3,0.5,0.5,0.5,0.5c0,0,0,0,0,0c0,0,0,0.1-0.3,0.3c-0.7,0.4-1.7,0.6-3,0.6
			c-0.8,0-1.5-0.1-2.1-0.3c-0.5-0.2-1-0.4-1.4-0.7c-0.2-0.5-0.4-0.9-0.7-1.2c-0.3-0.3-0.8-0.4-1.2-0.4c-0.6,0-1.1,0.2-1.5,0.6
			c-0.4,0.4-0.6,1-0.6,1.9v1c0,0.9,0.2,1.5,0.6,1.9c0.4,0.4,0.9,0.6,1.5,0.6c0.2,0,0.5,0,0.7-0.1C104.3,95.5,104.4,95.4,104.5,95.4z
			 M82.9,88.8c0,1.3,0.2,2.3,0.6,3.1c0.4,0.7,0.9,1.5,1.6,2.2c0.7,0.7,1.5,1.2,2.4,1.6c0.9,0.4,1.9,0.5,2.9,0.5c2,0,3.8-0.7,5.3-2.1
			c1.5-1.4,2.2-3.2,2.2-5.2v-8.2c0.5-0.1,1-0.2,1.3-0.5c0.4-0.4,0.6-0.9,0.6-1.5c0-0.6-0.2-1.1-0.6-1.5c-0.4-0.4-1-0.5-1.9-0.5l-4,0
			c-0.9,0-1.5,0.2-1.9,0.6c-0.4,0.4-0.6,0.9-0.6,1.5s0.2,1.1,0.6,1.5c0.4,0.4,1,0.6,1.9,0.6h0.6v8.5c0,0.5-0.1,0.9-0.3,1.2
			c-0.3,0.6-0.8,1-1.4,1.3c-0.6,0.3-1.1,0.4-1.8,0.4c-1,0-1.7-0.3-2.4-0.9c-0.7-0.6-1-1.3-1-2.1v-8.5h0.6c0.9,0,1.5-0.2,1.9-0.6
			c0.4-0.4,0.6-0.9,0.6-1.5s-0.2-1.1-0.6-1.5c-0.4-0.4-1-0.6-1.9-0.6l-4,0c-0.9,0-1.5,0.2-1.9,0.5C81.2,77.5,81,78,81,78.6
			c0,0.6,0.2,1.1,0.6,1.5c0.3,0.3,0.7,0.5,1.3,0.5V88.8z M195.6,91.6c-0.9,0-1.5,0.2-1.9,0.6c-0.4,0.4-0.6,0.9-0.6,1.5
			c0,0.6,0.2,1.1,0.6,1.5c0.4,0.4,1,0.6,1.9,0.6H206c0.9,0,1.5-0.2,1.9-0.6c0.4-0.4,0.6-0.9,0.6-1.5c0-0.6-0.2-1.1-0.6-1.5
			c-0.4-0.4-1-0.6-1.9-0.6h-3.2V81.1h-6c-0.9,0-1.5,0.2-1.9,0.6c-0.4,0.4-0.6,0.9-0.6,1.5c0,0.6,0.2,1.1,0.6,1.5
			c0.4,0.4,1,0.6,1.9,0.6h2v6.5H195.6z M177.2,91.6c-0.9,0-1.5,0.2-1.9,0.6c-0.4,0.4-0.6,0.9-0.6,1.5c0,0.6,0.2,1.1,0.6,1.5
			c0.4,0.4,1,0.6,1.9,0.6h10.4c0.9,0,1.5-0.2,1.9-0.6c0.4-0.4,0.6-0.9,0.6-1.5c0-0.6-0.2-1.1-0.6-1.5c-0.4-0.4-1-0.6-1.9-0.6h-3.2
			V75.3h-6c-0.9,0-1.5,0.2-1.9,0.6c-0.4,0.4-0.6,0.9-0.6,1.5c0,0.6,0.2,1.1,0.6,1.5c0.4,0.4,1,0.6,1.9,0.6h2v12.3H177.2z
			 M158.8,91.6c-0.9,0-1.5,0.2-1.9,0.6c-0.4,0.4-0.6,0.9-0.6,1.5c0,0.6,0.2,1.1,0.6,1.5c0.4,0.4,1,0.6,1.9,0.6h10.4
			c0.9,0,1.5-0.2,1.9-0.6c0.4-0.4,0.6-0.9,0.6-1.5c0-0.6-0.2-1.1-0.6-1.5c-0.4-0.4-1-0.6-1.9-0.6H166V81.1h-6
			c-0.9,0-1.5,0.2-1.9,0.6c-0.4,0.4-0.6,0.9-0.6,1.5c0,0.6,0.2,1.1,0.6,1.5c0.4,0.4,1,0.6,1.9,0.6h2v6.5H158.8z M46.7,91.5
			c-0.6,0.3-0.9,0.6-1.2,0.9c-0.2,0.3-0.3,0.7-0.3,1.1c0,0.6,0.2,1.1,0.6,1.5c0.4,0.4,0.9,0.6,1.4,0.6c0.4,0,0.8-0.2,1.4-0.5
			l15.6-8.7l-15.6-8.7c-0.6-0.3-1.1-0.5-1.4-0.5c-0.6,0-1,0.2-1.4,0.6s-0.6,0.9-0.6,1.5c0,0.4,0.1,0.8,0.3,1.1
			c0.2,0.3,0.6,0.6,1.2,0.9l9.2,5.1L46.7,91.5z M197.8,79.5h4.7v-4.2h-4.7V79.5z M161,79.5h4.7v-4.2H161V79.5z M161,61.2
			c-0.9,0-1.5,0.2-1.9,0.6c-0.4,0.4-0.6,0.9-0.6,1.5c0,0.6,0.2,1.1,0.6,1.5c0.4,0.4,1,0.6,1.9,0.6h3.5c1.3,0,2.4-0.3,3.4-0.9
			c1-0.6,1.8-1.4,2.3-2.3c0.5-0.9,0.7-1.9,0.7-3.1V48.4h0c0.9,0,1.5-0.2,1.9-0.6c0.4-0.4,0.6-0.9,0.6-1.5c0-0.6-0.2-1.1-0.6-1.5
			c-0.4-0.4-1-0.6-1.9-0.6h-4.1v0.5c-0.4-0.2-0.9-0.4-1.4-0.6c-0.7-0.2-1.5-0.4-2.4-0.4c-2.2,0-4.1,0.8-5.6,2.2
			c-1.5,1.5-2.3,3.3-2.3,5.5c0,2.2,0.8,4,2.3,5.5c1.5,1.5,3.4,2.2,5.6,2.2c0.8,0,1.6-0.1,2.3-0.4c0.5-0.1,1-0.3,1.4-0.6V59
			c0,0.6-0.2,1.2-0.6,1.6c-0.4,0.4-1,0.6-1.8,0.6H161z M122.9,58.6c0.6,0.3,1.2,0.5,1.9,0.6c0.8,0.2,1.6,0.2,2.6,0.2
			c2.3,0,4.2-0.6,5.7-1.7c1.1-0.8,1.6-1.9,1.6-3.2c0-0.9-0.3-1.8-1-2.6c-0.6-0.8-1.5-1.4-2.7-1.8c-0.8-0.3-2.3-0.6-4.4-0.9
			c-1.4-0.2-1.8-0.3-2-0.4c-0.2-0.1-0.3-0.2-0.3-0.2c0,0,0.1-0.1,0.2-0.1c0.6-0.3,1.5-0.5,2.6-0.5c0.5,0,1.1,0.1,1.6,0.2
			c0.4,0.1,0.9,0.3,1.3,0.5c0.1,0.4,0.3,0.7,0.7,1c0.4,0.3,0.8,0.5,1.3,0.5c0.7,0,1.3-0.3,1.7-0.9c0.2-0.3,0.3-0.9,0.3-1.6v-0.7
			c0-0.9-0.2-1.5-0.5-1.9c-0.4-0.4-0.9-0.6-1.4-0.6c-0.2,0-0.4,0-0.7,0.1c-0.1,0.1-0.3,0.1-0.4,0.2c-0.6-0.2-1.1-0.4-1.7-0.5
			c-0.7-0.1-1.4-0.2-2.1-0.2c-2.1,0-3.9,0.5-5.3,1.6c-1,0.8-1.6,1.9-1.6,3.1c0,1.2,0.5,2.2,1.4,3.1c0.9,0.8,2.6,1.3,5.2,1.6
			c2,0.2,2.8,0.5,3.1,0.6c0.5,0.3,0.5,0.5,0.5,0.5c0,0,0,0,0,0c0,0,0,0.1-0.3,0.3c-0.7,0.4-1.7,0.6-3,0.6c-0.8,0-1.5-0.1-2.1-0.3
			c-0.5-0.2-1-0.4-1.4-0.7c-0.2-0.5-0.4-0.9-0.7-1.2c-0.3-0.3-0.8-0.4-1.2-0.4c-0.6,0-1.1,0.2-1.5,0.6c-0.4,0.4-0.6,1-0.6,1.9v1
			c0,0.9,0.2,1.5,0.6,1.9c0.4,0.4,0.9,0.6,1.5,0.6c0.2,0,0.5,0,0.7-0.1C122.7,58.7,122.8,58.6,122.9,58.6z M108.5,43.9
			c-2.2,0-4.1,0.7-5.8,2.1c-1.7,1.4-2.6,3.3-2.6,5.6c0,2.2,0.8,4,2.4,5.5c1.6,1.5,3.7,2.2,6.2,2.2c1.5,0,3-0.2,4.6-0.5
			c1.7-0.4,2.7-0.7,3.2-1.2c0.4-0.4,0.6-0.8,0.6-1.4c0-0.6-0.2-1.1-0.6-1.4c-0.4-0.4-0.8-0.6-1.4-0.6c-0.3,0-0.9,0.1-1.7,0.3
			c-1.8,0.5-3.3,0.7-4.4,0.7c-1.3,0-2.3-0.2-3-0.7c-0.5-0.3-0.8-0.6-1.1-1H117v-1.8c0-1.1-0.2-2-0.5-2.8c-0.5-1.1-1.1-2.1-1.9-2.9
			c-0.6-0.6-1.4-1.1-2.5-1.5C111,44.1,109.8,43.9,108.5,43.9z M185.3,54.9c-0.5,0.1-1,0.2-1.3,0.5c-0.4,0.4-0.6,0.9-0.6,1.5
			c0,0.6,0.2,1.1,0.6,1.5c0.4,0.4,1,0.6,1.9,0.6h2.8c0.9,0,1.5-0.2,1.9-0.6c0.4-0.4,0.6-0.9,0.6-1.5c0-0.6-0.2-1.1-0.6-1.5
			c-0.3-0.3-0.7-0.5-1.3-0.5v-5.2c0-1.6-0.5-2.9-1.4-3.9c-1.2-1.2-2.7-1.9-4.7-1.9c-0.8,0-1.6,0.1-2.4,0.4c-0.4,0.1-0.8,0.3-1.2,0.6
			v-0.6h-3.4c-0.9,0-1.5,0.2-1.9,0.6c-0.4,0.4-0.6,0.9-0.6,1.5c0,0.6,0.2,1.1,0.6,1.5c0.3,0.3,0.7,0.5,1.3,0.5v6.5
			c-0.6,0-1,0.1-1.3,0.3c-0.6,0.4-1,1-1,1.7c0,0.6,0.2,1.1,0.6,1.5c0.4,0.4,1,0.6,1.9,0.6h3.5c0.9,0,1.5-0.2,1.9-0.6
			c0.4-0.4,0.6-0.9,0.6-1.5c0-0.8-0.3-1.4-1-1.7c-0.3-0.2-0.7-0.3-1.3-0.3v-5c0.7-0.8,1.3-1.3,1.8-1.5c0.5-0.2,1-0.4,1.6-0.4
			c0.8,0,1.4,0.2,1.8,0.5c0.2,0.2,0.4,0.6,0.4,1.1V54.9z M140.4,54.8c-0.9,0-1.5,0.2-1.9,0.6c-0.4,0.4-0.6,0.9-0.6,1.5
			c0,0.6,0.2,1.1,0.6,1.5c0.4,0.4,1,0.6,1.9,0.6h10.4c0.9,0,1.5-0.2,1.9-0.6c0.4-0.4,0.6-0.9,0.6-1.5c0-0.6-0.2-1.1-0.6-1.5
			c-0.4-0.4-1-0.6-1.9-0.6h-3.2V44.3h-6c-0.9,0-1.5,0.2-1.9,0.6c-0.4,0.4-0.6,0.9-0.6,1.5c0,0.6,0.2,1.1,0.6,1.5
			c0.4,0.4,1,0.6,1.9,0.6h2v6.5H140.4z M83,54.9c-0.5,0.1-1,0.2-1.3,0.5c-0.4,0.4-0.6,0.9-0.6,1.5c0,0.6,0.2,1.1,0.6,1.5
			c0.4,0.4,1,0.6,1.9,0.6h6.2c1.7,0,3-0.3,4.1-0.8c0.7-0.3,1.4-0.8,2.1-1.5c0.8-0.7,1.4-1.6,1.9-2.6c0.5-1.1,0.7-2.3,0.7-3.7v-1.5
			c0-1.1-0.1-2.1-0.4-2.9c-0.3-0.8-0.6-1.6-1.1-2.3c-0.5-0.8-1-1.4-1.4-1.9c-0.6-0.6-1.5-1.1-2.5-1.5c-1-0.4-2.1-0.6-3.1-0.6l-6.4,0
			c-0.9,0-1.5,0.2-1.9,0.6c-0.4,0.4-0.6,0.9-0.6,1.5c0,0.6,0.2,1.1,0.6,1.5c0.3,0.3,0.7,0.5,1.3,0.5V54.9z M46.7,54.7
			c-0.6,0.3-0.9,0.6-1.2,0.9c-0.2,0.3-0.3,0.7-0.3,1.1c0,0.6,0.2,1.1,0.6,1.5c0.4,0.4,0.9,0.6,1.4,0.6c0.4,0,0.8-0.2,1.4-0.5
			l15.6-8.7L48.7,41c-0.6-0.3-1.1-0.5-1.4-0.5c-0.6,0-1,0.2-1.4,0.6s-0.6,0.9-0.6,1.5c0,0.4,0.1,0.8,0.3,1.1
			c0.2,0.3,0.6,0.6,1.2,0.9l9.2,5.1L46.7,54.7z M142.6,42.7h4.7v-4.2h-4.7V42.7z"/>
		<path fill="#FFFFFF" d="M246.3,5c13.2,0,24,10.8,24,24v128c0,13.2-10.8,24-24,24h-214c-13.2,0-24-10.8-24-24V29
			c0-13.2,10.8-24,24-24H246.3 M142.1,43.2h1h3.7h1v-1V39v-1h-1h-3.7h-1v1v3.2V43.2 M82.5,44.2v10.2c-0.4,0.1-0.8,0.3-1.1,0.6
			c-0.5,0.5-0.8,1.1-0.8,1.8c0,0.7,0.3,1.4,0.8,1.9c0.5,0.5,1.2,0.7,2.3,0.7h6.2c1.7,0,3.2-0.3,4.3-0.8c0.7-0.3,1.5-0.9,2.2-1.6
			c0.8-0.7,1.5-1.7,2-2.8c0.5-1.1,0.7-2.4,0.7-3.9v-1.5c0-1.2-0.1-2.2-0.4-3c-0.3-0.8-0.7-1.6-1.2-2.5c-0.5-0.8-1-1.5-1.5-1.9
			c-0.7-0.7-1.6-1.2-2.6-1.6c-1.1-0.4-2.2-0.6-3.3-0.6l-6.4,0c-1,0-1.7,0.2-2.3,0.7c-0.5,0.5-0.8,1.1-0.8,1.9c0,0.7,0.3,1.4,0.8,1.8
			C81.7,43.9,82.1,44.1,82.5,44.2 M54.8,49.7l-8.4,4.6c-0.6,0.4-1.1,0.7-1.3,1c-0.3,0.4-0.4,0.9-0.4,1.4c0,0.7,0.3,1.3,0.8,1.8
			c0.5,0.5,1.1,0.8,1.8,0.8c0.4,0,1-0.2,1.7-0.6l14.8-8.2l1.6-0.9l-1.6-0.9l-14.8-8.2c-0.7-0.4-1.2-0.6-1.7-0.6
			c-0.7,0-1.3,0.3-1.8,0.8c-0.5,0.5-0.8,1.1-0.8,1.8c0,0.6,0.2,1,0.4,1.4c0.3,0.3,0.7,0.7,1.3,1L54.8,49.7 M163.1,59.9
			c0.8,0,1.7-0.1,2.5-0.4c0.3-0.1,0.5-0.2,0.8-0.3c0,0.4-0.2,0.8-0.5,1.1c-0.3,0.3-0.8,0.5-1.5,0.5H161c-1,0-1.7,0.2-2.3,0.7
			c-0.5,0.5-0.8,1.1-0.8,1.9c0,0.7,0.3,1.4,0.8,1.8c0.5,0.5,1.2,0.7,2.3,0.7h3.5c1.4,0,2.6-0.3,3.7-1c1.1-0.7,1.9-1.5,2.4-2.4
			c0.5-1,0.8-2.1,0.8-3.3V48.9c0.8-0.1,1.3-0.3,1.8-0.7c0.2-0.2,0.3-0.3,0.5-0.5c0.1,0.2,0.3,0.4,0.4,0.5c0.3,0.3,0.7,0.5,1.1,0.6
			v5.6c-0.5,0.1-0.8,0.2-1.1,0.3c-0.8,0.5-1.2,1.2-1.2,2.1c0,0.7,0.3,1.4,0.8,1.9c0.5,0.5,1.2,0.7,2.3,0.7h3.5c1,0,1.7-0.2,2.3-0.7
			c0.5-0.5,0.8-1.1,0.8-1.8c0-0.9-0.4-1.7-1.2-2.2c-0.3-0.2-0.6-0.3-1.1-0.3V50c0.8-0.8,1.2-1.1,1.5-1.3c0.4-0.2,0.9-0.3,1.4-0.3
			c0.7,0,1.2,0.1,1.5,0.4c0.2,0.1,0.2,0.5,0.2,0.7v4.9c-0.4,0.1-0.8,0.3-1.1,0.6c-0.5,0.5-0.8,1.1-0.8,1.8c0,0.7,0.3,1.4,0.8,1.9
			c0.5,0.5,1.2,0.7,2.3,0.7h2.8c1,0,1.7-0.2,2.3-0.7c0.5-0.5,0.8-1.1,0.8-1.8c0-0.7-0.3-1.4-0.8-1.9c-0.3-0.3-0.7-0.5-1.1-0.6v-4.8
			c0-1.7-0.5-3.1-1.5-4.2c-1.2-1.3-2.9-2-5-2c-0.9,0-1.7,0.1-2.5,0.4c-0.2,0.1-0.3,0.1-0.5,0.2v-0.2h-1h-2.9c-1,0-1.7,0.2-2.3,0.7
			c-0.2,0.2-0.3,0.3-0.5,0.5c-0.1-0.2-0.3-0.4-0.5-0.5c-0.5-0.5-1.2-0.7-2.2-0.7h-3.6h-1V44c-0.2-0.1-0.5-0.2-0.7-0.3
			c-0.8-0.3-1.6-0.4-2.5-0.4c-2.3,0-4.3,0.8-5.9,2.4c-1.6,1.6-2.4,3.6-2.4,5.9c0,2.3,0.8,4.3,2.4,5.9
			C158.8,59.1,160.8,59.9,163.1,59.9 M121.7,52.3c-0.7,0-1.3,0.3-1.7,0.8c-0.5,0.5-0.7,1.2-0.7,2.3v1c0,1,0.2,1.7,0.7,2.2
			c0.5,0.5,1.1,0.8,1.9,0.8c0.3,0,0.6-0.1,0.9-0.2c0.1,0,0.1-0.1,0.2-0.1c0.6,0.2,1.1,0.4,1.8,0.5c0.8,0.2,1.7,0.3,2.7,0.3
			c2.4,0,4.5-0.6,6-1.8c1.2-0.9,1.8-2.1,1.8-3.5c0-1-0.4-2-1.1-2.9c-0.3-0.4-0.7-0.8-1.2-1.1c0.5-0.2,0.9-0.5,1.2-1
			c0.3-0.4,0.4-1,0.4-1.9v-0.7c0-1-0.2-1.7-0.7-2.2c-0.5-0.5-1.1-0.8-1.8-0.8c-0.3,0-0.6,0.1-0.8,0.2c-0.1,0-0.2,0.1-0.2,0.1
			c-0.5-0.2-1-0.4-1.6-0.5c-0.7-0.1-1.5-0.2-2.2-0.2c-2.3,0-4.1,0.6-5.6,1.7c-1.2,0.9-1.8,2.1-1.8,3.5c0,1.4,0.5,2.5,1.6,3.4
			C121.5,52.1,121.6,52.2,121.7,52.3 M108.7,59.9c1.5,0,3.1-0.2,4.7-0.5c1.8-0.4,2.8-0.8,3.4-1.3c0.5-0.5,0.8-1.1,0.8-1.7
			c0-0.7-0.2-1.3-0.7-1.8c-0.1-0.1-0.3-0.3-0.5-0.4h0.1h1v-1v-1.3c0-1.1-0.2-2.1-0.6-3c-0.5-1.2-1.2-2.2-2-3.1
			c-0.6-0.6-1.5-1.1-2.6-1.6c-1.2-0.5-2.4-0.7-3.8-0.7c-2.3,0-4.4,0.8-6.1,2.3c-1.8,1.5-2.7,3.6-2.7,6c0,2.3,0.8,4.3,2.5,5.8
			C103.8,59.1,106,59.9,108.7,59.9 M141.6,48.9h1.5v5.5h-2.7c-1,0-1.7,0.2-2.3,0.7c-0.5,0.5-0.8,1.1-0.8,1.8c0,0.7,0.3,1.4,0.8,1.9
			c0.5,0.5,1.2,0.7,2.3,0.7h10.4c1,0,1.7-0.2,2.3-0.7c0.5-0.5,0.8-1.1,0.8-1.8c0-0.7-0.3-1.4-0.8-1.9c-0.5-0.5-1.2-0.7-2.3-0.7h-2.7
			v-9.5v-1h-1h-5.5c-1,0-1.7,0.2-2.3,0.7c-0.5,0.5-0.8,1.1-0.8,1.8c0,0.7,0.3,1.4,0.8,1.9C139.9,48.7,140.6,48.9,141.6,48.9
			 M197.3,80h1h3.7h1v-1v-3.2v-1h-1h-3.7h-1v1V79V80 M178.4,79.8h1.5v11.3h-2.7c-1,0-1.7,0.2-2.3,0.7c-0.5,0.5-0.8,1.1-0.8,1.8
			c0,0.7,0.3,1.4,0.8,1.9c0.5,0.5,1.2,0.7,2.3,0.7h10.4c1,0,1.7-0.2,2.2-0.7c0.5-0.5,0.8-1.1,0.8-1.8c0-0.7-0.3-1.4-0.8-1.9
			c-0.5-0.5-1.2-0.7-2.2-0.7h-2.7V75.8v-1h-1h-5.5c-1,0-1.7,0.2-2.3,0.7c-0.5,0.5-0.8,1.1-0.8,1.8c0,0.7,0.3,1.4,0.8,1.9
			C176.7,79.6,177.4,79.8,178.4,79.8 M160.5,80h1h3.7h1v-1v-3.2v-1h-1h-3.7h-1v1V79V80 M137.7,79.8v11.3c-0.8,0.1-1.3,0.3-1.8,0.7
			c0,0,0,0,0,0c0,0,0,0,0,0c-0.4-0.4-1-0.6-1.8-0.7v-5.3c0-1.7-0.7-3.1-2-4.2c-1.2-1-2.9-1.4-5.1-1.4c-0.7,0-1.5,0.1-2.3,0.2
			c-0.8,0.1-1.6,0.3-2.4,0.5c-0.9,0.2-1.2,0.4-1.4,0.5c-0.3,0.2-0.6,0.5-0.8,0.8c-0.2,0.3-0.3,0.7-0.3,1.1c0,0.7,0.2,1.3,0.7,1.8
			c0.5,0.5,1.1,0.7,1.8,0.7c0.1,0,0.2,0,0.3,0c-0.7,0.3-1.4,0.7-1.9,1.2c-1.5,1.3-2.3,2.8-2.3,4.4c0,1.4,0.6,2.6,1.9,3.7
			c1.2,1,2.8,1.5,4.7,1.5c0.8,0,1.8-0.1,2.7-0.3c0.5-0.1,0.9-0.2,1.3-0.4v0.2h1h3.6c1,0,1.7-0.2,2.3-0.7c0,0,0,0,0,0c0,0,0,0,0,0
			c0.5,0.5,1.2,0.7,2.3,0.7h3.6h1V96c0.3,0.1,0.6,0.2,0.9,0.3c0.8,0.2,1.7,0.4,2.6,0.4c2.6,0,4.7-0.8,6.3-2.3
			c1.6-1.5,2.4-3.4,2.4-5.7c0-2.3-0.8-4.4-2.5-6c-1.7-1.7-3.7-2.5-6.1-2.5c-0.9,0-1.8,0.1-2.6,0.4c-0.3,0.1-0.7,0.2-1,0.4v-5.2v-1
			h-1h-3.6c-1,0-1.7,0.2-2.3,0.7c-0.5,0.5-0.8,1.1-0.8,1.8c0,0.7,0.3,1.4,0.8,1.9C136.3,79.5,136.9,79.8,137.7,79.8 M214.4,80.6
			h-0.1c-1,0-1.7,0.2-2.3,0.7c-0.5,0.5-0.8,1.1-0.8,1.8c0,0.7,0.3,1.4,0.8,1.9c0.5,0.5,1.2,0.7,2.3,0.7h0.1v5.8
			c0,1.5,0.6,2.8,1.8,3.8c1.1,1,2.8,1.5,4.9,1.5c1.1,0,2.4-0.2,3.9-0.6c1.6-0.5,2.7-0.9,3.3-1.5c0.5-0.5,0.8-1.1,0.8-1.8
			c0-0.7-0.3-1.3-0.7-1.8c-0.5-0.5-1.1-0.7-1.8-0.7c-0.5,0-1,0.2-1.6,0.5c-1.2,0.6-2.5,0.9-3.9,0.9c-1,0-1.5-0.2-1.6-0.3
			c0-0.1-0.1-0.2-0.1-0.5v-5.2h4.7c1,0,1.7-0.2,2.3-0.7c0.5-0.5,0.8-1.1,0.8-1.8c0-0.7-0.3-1.4-0.8-1.9c-0.5-0.5-1.2-0.7-2.3-0.7
			h-4.7v-1.8c0-1-0.2-1.7-0.7-2.2c-0.5-0.5-1.1-0.8-1.8-0.8c-0.7,0-1.4,0.3-1.9,0.8c-0.5,0.5-0.7,1.2-0.7,2.3V80.6 M90.4,77.5
			c-0.1-0.3-0.3-0.5-0.6-0.8c-0.5-0.5-1.2-0.7-2.3-0.7l-4,0c-1,0-1.8,0.2-2.3,0.7c-0.5,0.5-0.8,1.1-0.8,1.9c0,0.7,0.3,1.4,0.8,1.8
			c0.3,0.3,0.7,0.5,1.1,0.6v7.8c0,1.4,0.2,2.4,0.7,3.3c0.4,0.8,1,1.6,1.7,2.3c0.8,0.7,1.6,1.3,2.6,1.7c0.9,0.4,2,0.6,3,0.6
			c2.2,0,4.1-0.8,5.6-2.3c1.6-1.5,2.3-3.4,2.3-5.6V81c0.4-0.1,0.8-0.3,1.1-0.6c0.5-0.5,0.8-1.1,0.8-1.8c0-0.7-0.3-1.4-0.8-1.9
			c-0.5-0.5-1.2-0.7-2.2-0.7l-4,0c-1,0-1.7,0.2-2.3,0.7C90.8,76.9,90.6,77.2,90.4,77.5 M54.8,86.5l-8.4,4.6c-0.6,0.4-1.1,0.7-1.3,1
			c-0.3,0.4-0.4,0.9-0.4,1.4c0,0.7,0.3,1.3,0.8,1.8c0.5,0.5,1.1,0.8,1.8,0.8c0.4,0,1-0.2,1.7-0.6l14.8-8.2l1.6-0.9l-1.6-0.9
			l-14.8-8.2c-0.7-0.4-1.2-0.6-1.7-0.6c-0.7,0-1.3,0.3-1.8,0.8c-0.5,0.5-0.8,1.1-0.8,1.8c0,0.6,0.2,1,0.4,1.4c0.3,0.3,0.7,0.7,1.3,1
			L54.8,86.5 M103.3,89.1c-0.7,0-1.3,0.3-1.7,0.8c-0.5,0.5-0.7,1.2-0.7,2.3v1c0,1,0.2,1.7,0.7,2.2c0.5,0.5,1.1,0.8,1.9,0.8
			c0.3,0,0.6-0.1,0.9-0.2c0.1,0,0.1-0.1,0.2-0.1c0.6,0.2,1.1,0.4,1.8,0.5c0.8,0.2,1.7,0.3,2.7,0.3c2.4,0,4.5-0.6,6-1.8
			c1.2-0.9,1.8-2.1,1.8-3.5c0-1-0.4-2-1.1-2.9c-0.3-0.4-0.7-0.8-1.2-1.1c0.5-0.2,0.9-0.5,1.2-1c0.3-0.4,0.4-1,0.4-1.9v-0.7
			c0-1-0.2-1.7-0.7-2.2c-0.5-0.5-1.1-0.8-1.8-0.8c-0.3,0-0.6,0.1-0.8,0.2c-0.1,0-0.2,0.1-0.2,0.1c-0.5-0.2-1-0.4-1.6-0.5
			c-0.7-0.1-1.5-0.2-2.2-0.2c-2.3,0-4.1,0.6-5.6,1.7c-1.2,0.9-1.8,2.1-1.8,3.5c0,1.4,0.5,2.5,1.6,3.4
			C103.1,88.9,103.2,89,103.3,89.1 M239.7,85.4l-2.1,4.1l-2.1-4.1c0.3-0.1,0.5-0.2,0.7-0.4c0.5-0.5,0.8-1.1,0.8-1.8
			c0-0.7-0.3-1.4-0.8-1.9c-0.5-0.5-1.2-0.7-2.2-0.7h-2.8c-1,0-1.7,0.2-2.3,0.7c-0.5,0.5-0.8,1.1-0.8,1.9c0,0.6,0.2,1.2,0.7,1.7
			c0.3,0.3,0.7,0.6,1.2,0.7l4.9,9.5l-1.2,2.4h-2.4c-1,0-1.7,0.2-2.3,0.7c-0.5,0.5-0.8,1.1-0.8,1.9c0,0.7,0.3,1.4,0.8,1.8
			c0.5,0.5,1.2,0.7,2.3,0.7h6.7c1,0,1.7-0.2,2.2-0.7c0.5-0.5,0.8-1.1,0.8-1.8c0-0.9-0.4-1.7-1.2-2.2c-0.1-0.1-0.3-0.2-0.5-0.2
			l6.1-12.1c0.5-0.1,0.9-0.4,1.3-0.7c0.4-0.5,0.7-1.1,0.7-1.7c0-0.7-0.3-1.4-0.8-1.9c-0.5-0.5-1.2-0.7-2.2-0.7h-2.9
			c-1,0-1.7,0.2-2.3,0.7c-0.5,0.5-0.8,1.1-0.8,1.8c0,0.7,0.3,1.4,0.8,1.9C239.3,85.2,239.5,85.3,239.7,85.4 M196.8,85.7h1.5v5.5
			h-2.7c-1,0-1.7,0.2-2.3,0.7c-0.5,0.5-0.8,1.1-0.8,1.8c0,0.7,0.3,1.4,0.8,1.9c0.5,0.5,1.2,0.7,2.3,0.7H206c1,0,1.7-0.2,2.2-0.7
			c0.5-0.5,0.8-1.1,0.8-1.8c0-0.7-0.3-1.4-0.8-1.9c-0.5-0.5-1.2-0.7-2.2-0.7h-2.7v-9.5v-1h-1h-5.5c-1,0-1.7,0.2-2.3,0.7
			c-0.5,0.5-0.8,1.1-0.8,1.8c0,0.7,0.3,1.4,0.8,1.9C195.1,85.5,195.8,85.7,196.8,85.7 M160,85.7h1.5v5.5h-2.7c-1,0-1.7,0.2-2.3,0.7
			c-0.5,0.5-0.8,1.1-0.8,1.8c0,0.7,0.3,1.4,0.8,1.9c0.5,0.5,1.2,0.7,2.3,0.7h10.4c1,0,1.7-0.2,2.3-0.7c0.5-0.5,0.8-1.1,0.8-1.8
			c0-0.7-0.3-1.4-0.8-1.9c-0.5-0.5-1.2-0.7-2.3-0.7h-2.7v-9.5v-1h-1H160c-1,0-1.7,0.2-2.3,0.7c-0.5,0.5-0.8,1.1-0.8,1.8
			c0,0.7,0.3,1.4,0.8,1.9C158.3,85.5,159,85.7,160,85.7 M84.6,117.9v10.1c-0.7,0.1-1.3,0.3-1.7,0.7c-0.5,0.5-0.8,1.1-0.8,1.8
			c0,0.7,0.3,1.4,0.8,1.9c0.5,0.5,1.2,0.7,2.3,0.7h6.6c1,0,1.7-0.2,2.3-0.7c0.5-0.5,0.8-1.1,0.8-1.8c0-0.7-0.3-1.4-0.8-1.9
			c-0.5-0.5-1.2-0.7-2.3-0.7h-2.1v-1.2h1.9c1.4,0,2.5-0.2,3.4-0.5c0.8-0.3,1.7-0.8,2.5-1.5c0.8-0.7,1.4-1.4,1.8-2.1
			c0.2-0.4,0.3-0.7,0.5-1.1c0.1,0.1,0.1,0.2,0.2,0.2c0.4,0.4,1,0.6,1.8,0.7v5.6c0,1,0.2,1.8,0.6,2.5c0.5,0.9,1.2,1.6,2.1,2.1
			c0.9,0.5,1.9,0.8,3.1,0.8c0.8,0,1.6-0.1,2.5-0.3c0.4-0.1,0.8-0.2,1.3-0.4v0.2h1h2.9c1,0,1.7-0.2,2.3-0.7c0.5-0.5,0.8-1.1,0.8-1.8
			c0-0.7-0.3-1.4-0.8-1.8c-0.3-0.3-0.7-0.5-1.1-0.6v-9.6v-1h-1h-4.2c-1,0-1.7,0.2-2.3,0.7c-0.5,0.5-0.8,1.1-0.8,1.8
			c0,0.7,0.3,1.4,0.8,1.9c0.5,0.5,1.2,0.7,2.3,0.7h0.1v4.7c-0.8,0.4-1.4,0.8-2,0.9c-0.6,0.2-1.2,0.3-1.7,0.3c-0.4,0-0.6-0.1-0.7-0.2
			c-0.1-0.1-0.2-0.4-0.2-0.7v-9.1v-1h-1h-3.6c-1,0-1.7,0.2-2.3,0.7c0,0-0.1,0.1-0.1,0.1c-0.3-1.3-0.9-2.4-2-3.4
			c-1.4-1.3-3.3-2-5.6-2l-7.1,0c-1,0-1.7,0.2-2.3,0.7c-0.5,0.5-0.8,1.1-0.8,1.9c0,0.7,0.3,1.4,0.8,1.9
			C83.3,117.6,83.8,117.8,84.6,117.9 M54.8,123.2l-8.4,4.6c-0.6,0.4-1.1,0.7-1.3,1c-0.3,0.4-0.4,0.9-0.4,1.4c0,0.7,0.3,1.3,0.8,1.8
			c0.5,0.5,1.1,0.8,1.8,0.8c0.4,0,1-0.2,1.7-0.6l14.8-8.2l1.6-0.9l-1.6-0.9l-14.8-8.2c-0.7-0.4-1.2-0.6-1.7-0.6
			c-0.7,0-1.3,0.3-1.8,0.8c-0.5,0.5-0.8,1.1-0.8,1.8c0,0.6,0.2,1,0.4,1.4c0.3,0.3,0.7,0.7,1.3,1L54.8,123.2 M200.7,133.5
			c1.5,0,3.1-0.2,4.7-0.5c1.8-0.4,2.8-0.8,3.4-1.3c0.5-0.5,0.8-1.1,0.8-1.7c0-0.7-0.2-1.3-0.7-1.8c-0.1-0.1-0.3-0.3-0.5-0.4h0.1h1
			v-1v-1.3c0-1.1-0.2-2.1-0.6-3c-0.5-1.2-1.2-2.2-2-3.1c-0.6-0.6-1.5-1.1-2.6-1.6c-1.2-0.5-2.4-0.7-3.8-0.7c-2.3,0-4.4,0.8-6.1,2.3
			c-1.8,1.5-2.7,3.6-2.7,6c0,2.3,0.8,4.3,2.5,5.8C195.8,132.7,198,133.5,200.7,133.5 M176.9,125.8c-0.7,0-1.3,0.3-1.7,0.8
			c-0.5,0.5-0.7,1.2-0.7,2.3v1c0,1,0.2,1.7,0.7,2.2c0.5,0.5,1.1,0.8,1.9,0.8c0.3,0,0.6-0.1,0.9-0.2c0.1,0,0.1-0.1,0.2-0.1
			c0.6,0.2,1.1,0.4,1.8,0.5c0.8,0.2,1.7,0.3,2.7,0.3c2.4,0,4.5-0.6,6-1.8c1.2-0.9,1.8-2.1,1.8-3.5c0-1-0.4-2-1.1-2.9
			c-0.3-0.4-0.7-0.8-1.2-1.1c0.5-0.2,0.9-0.5,1.2-1c0.3-0.4,0.4-1,0.4-1.9v-0.7c0-1-0.2-1.7-0.7-2.2c-0.5-0.5-1.1-0.8-1.8-0.8
			c-0.3,0-0.6,0.1-0.8,0.2c-0.1,0-0.2,0.1-0.2,0.1c-0.5-0.2-1-0.4-1.6-0.5c-0.7-0.1-1.5-0.2-2.2-0.2c-2.3,0-4.1,0.6-5.6,1.7
			c-1.2,0.9-1.8,2.1-1.8,3.5c0,1.4,0.5,2.5,1.6,3.4C176.7,125.7,176.8,125.8,176.9,125.8 M164,133.5c1.6,0,3.1-0.4,4.5-1.1
			c1.5-0.7,2.6-1.8,3.3-3c0.7-1.3,1.1-2.6,1.1-3.9c0-1.4-0.4-2.8-1.1-4.1c-0.8-1.3-1.9-2.4-3.3-3.2c-1.4-0.8-3-1.2-4.5-1.2
			c-1.5,0-3,0.4-4.5,1.1c-1.4,0.8-2.6,1.8-3.3,3.2c-0.8,1.3-1.2,2.7-1.2,4.1c0,1.4,0.4,2.7,1.1,4c0.8,1.3,1.9,2.3,3.3,3
			C161,133.1,162.5,133.5,164,133.5 M142.8,117.7v-0.4h-1h-3.6c-1,0-1.7,0.2-2.3,0.7c-0.2,0.1-0.3,0.3-0.4,0.5
			c-0.1-0.1-0.2-0.2-0.3-0.3c-1.1-0.9-2.3-1.3-3.5-1.3c-0.8,0-1.6,0.2-2.5,0.5c-0.5,0.2-1,0.5-1.7,0.9v0v-1h-1h-4.2
			c-1,0-1.7,0.2-2.3,0.7c-0.5,0.5-0.8,1.1-0.8,1.8c0,0.7,0.3,1.4,0.8,1.9c0.5,0.5,1.2,0.7,2.3,0.7h0.1v5.5h-0.8
			c-1,0-1.7,0.2-2.3,0.7c-0.5,0.5-0.8,1.1-0.8,1.8c0,0.7,0.3,1.4,0.8,1.9c0.5,0.5,1.2,0.7,2.3,0.7h9.3c1,0,1.7-0.2,2.2-0.7
			c0.5-0.5,0.8-1.1,0.8-1.8c0-0.7-0.3-1.4-0.8-1.9c-0.5-0.5-1.2-0.7-2.3-0.7h-3.4v-3.2c1.1-0.9,2-1.6,2.7-2c1-0.6,1.4-0.7,1.4-0.7
			c0,0,0.2,0,0.5,0.3c0.6,0.5,1.2,0.8,1.9,0.8c0.7,0,1.3-0.3,1.8-0.7c0.1-0.1,0.3-0.3,0.4-0.5c0.4,0.3,0.9,0.4,1.5,0.5v11.9
			c-0.8,0.1-1.3,0.3-1.8,0.7c-0.5,0.5-0.8,1.1-0.8,1.9c0,0.7,0.3,1.4,0.8,1.8c0.5,0.5,1.2,0.7,2.3,0.7h5.4c1,0,1.7-0.2,2.2-0.7
			c0.5-0.5,0.8-1.1,0.8-1.8c0-0.7-0.3-1.4-0.8-1.9c-0.5-0.5-1.2-0.7-2.2-0.7h-0.8v-2.4c0.3,0.1,0.7,0.3,1,0.4
			c0.9,0.3,1.7,0.4,2.6,0.4c2,0,3.9-0.6,5.5-1.8c2-1.5,3-3.5,3-5.8c0-2.1-0.8-4-2.5-5.6c-1.7-1.6-3.7-2.4-6.1-2.4
			c-0.9,0-1.8,0.1-2.7,0.4C143.4,117.5,143.1,117.6,142.8,117.7 M127.2,48.5c0.5,0,1,0.1,1.5,0.2c0.3,0.1,0.7,0.2,1,0.4
			c0,0.1,0,0.1,0.1,0.2c-0.8-0.2-1.7-0.3-2.9-0.5c-0.4-0.1-0.8-0.1-1-0.2C126.2,48.5,126.7,48.5,127.2,48.5 M123.8,53.3
			c0.9,0.3,1.9,0.4,3.1,0.6c2,0.2,2.7,0.4,2.9,0.6c0,0,0,0,0,0c-0.6,0.3-1.5,0.4-2.6,0.4c-0.8,0-1.4-0.1-2-0.3
			c-0.4-0.1-0.8-0.3-1.1-0.5C124.1,53.7,123.9,53.5,123.8,53.3 M113.1,54.2c-1.7,0.4-3.1,0.7-4.1,0.7c-1.2,0-2.1-0.2-2.8-0.6
			c0,0-0.1,0-0.1-0.1H113.1 M90.4,79.7c0.1,0.3,0.3,0.5,0.6,0.8c0.5,0.5,1.2,0.7,2.3,0.7h0.1v8c0,0.4-0.1,0.7-0.2,1
			c-0.3,0.5-0.7,0.9-1.2,1.1c-0.5,0.3-1,0.4-1.5,0.4c-0.8,0-1.5-0.3-2.1-0.8c-0.6-0.5-0.8-1.1-0.8-1.7v-8h0.1c1,0,1.7-0.2,2.3-0.7
			C90.1,80.2,90.3,80,90.4,79.7 M108.8,85.3c0.5,0,1,0.1,1.5,0.2c0.3,0.1,0.7,0.2,1,0.4c0,0.1,0,0.1,0.1,0.2
			c-0.8-0.2-1.7-0.3-2.9-0.5c-0.4-0.1-0.8-0.1-1-0.2C107.8,85.3,108.3,85.3,108.8,85.3 M127.3,85.3c0.3,0,0.5,0,0.7,0
			C127.8,85.3,127.5,85.3,127.3,85.3 M105.4,90.1c0.9,0.3,1.9,0.4,3.1,0.6c2,0.2,2.7,0.4,2.9,0.6c0,0,0,0,0,0
			c-0.6,0.3-1.5,0.4-2.6,0.4c-0.8,0-1.4-0.1-2-0.3c-0.4-0.1-0.8-0.3-1.1-0.5C105.7,90.5,105.5,90.3,105.4,90.1 M182.4,122.1
			c0.5,0,1,0.1,1.5,0.2c0.3,0.1,0.7,0.2,1,0.4c0,0.1,0,0.1,0.1,0.2c-0.8-0.2-1.7-0.3-2.9-0.5c-0.4-0.1-0.8-0.1-1-0.2
			C181.4,122.1,181.9,122.1,182.4,122.1 M179,126.8c0.9,0.3,1.9,0.4,3.1,0.6c2,0.2,2.7,0.4,2.9,0.6c0,0,0,0,0,0
			c-0.6,0.3-1.5,0.4-2.6,0.4c-0.8,0-1.4-0.1-2-0.3c-0.4-0.1-0.8-0.3-1.1-0.5C179.3,127.3,179.1,127.1,179,126.8 M205.1,127.8
			c-1.7,0.4-3.1,0.7-4.1,0.7c-1.2,0-2.1-0.2-2.8-0.6c0,0-0.1,0-0.1-0.1H205.1 M246.3,4h-214c-13.8,0-25,11.2-25,25v128
			c0,13.8,11.2,25,25,25h214c13.8,0,25-11.2,25-25V29C271.3,15.2,260.1,4,246.3,4L246.3,4z M143.1,42.2V39h3.7v3.2H143.1L143.1,42.2
			z M83.5,55.3v-12c-0.6,0-1.1-0.2-1.4-0.4c-0.3-0.3-0.5-0.7-0.5-1.1c0-0.5,0.2-0.8,0.5-1.1c0.3-0.3,0.8-0.4,1.6-0.4l6.4,0
			c1,0,2,0.2,2.9,0.6c1,0.4,1.7,0.8,2.3,1.4c0.4,0.4,0.9,1,1.4,1.8c0.5,0.7,0.8,1.5,1.1,2.2c0.2,0.7,0.4,1.6,0.4,2.7v1.5
			c0,1.3-0.2,2.4-0.7,3.5c-0.4,1-1,1.8-1.7,2.5c-0.7,0.6-1.4,1.1-2,1.4c-1,0.5-2.3,0.7-3.9,0.7h-6.2c-0.7,0-1.3-0.1-1.6-0.4
			c-0.3-0.3-0.5-0.7-0.5-1.1c0-0.4,0.2-0.8,0.5-1.1C82.4,55.5,82.9,55.3,83.5,55.3C83.5,55.3,83.5,55.3,83.5,55.3L83.5,55.3z
			 M47.2,58.3c-0.4,0-0.8-0.2-1.1-0.5c-0.3-0.3-0.5-0.7-0.5-1.1c0-0.3,0.1-0.6,0.2-0.8c0.2-0.2,0.5-0.5,1-0.7l9.9-5.5l-9.9-5.5
			c-0.5-0.3-0.8-0.5-1-0.7c-0.2-0.2-0.2-0.5-0.2-0.8c0-0.4,0.2-0.8,0.5-1.1c0.3-0.3,0.7-0.5,1.1-0.5c0.3,0,0.7,0.1,1.2,0.4l14.8,8.2
			l-14.8,8.2C47.9,58.2,47.5,58.3,47.2,58.3L47.2,58.3z M163.1,58.9c-2.1,0-3.8-0.7-5.2-2.1c-1.4-1.4-2.1-3.1-2.1-5.2
			c0-2.1,0.7-3.8,2.1-5.2c1.4-1.4,3.2-2.1,5.2-2.1c0.8,0,1.5,0.1,2.2,0.3c0.7,0.2,1.4,0.6,2,1v-0.9h3.6c0.7,0,1.3,0.1,1.6,0.4
			c0.3,0.3,0.5,0.7,0.5,1.1c0,0.4-0.2,0.8-0.5,1.1c-0.3,0.3-0.8,0.4-1.6,0.4h-0.5V59c0,1.1-0.2,2-0.7,2.8c-0.5,0.8-1.2,1.5-2.1,2.1
			c-0.9,0.6-2,0.9-3.2,0.9H161c-0.7,0-1.3-0.1-1.6-0.4c-0.3-0.3-0.5-0.7-0.5-1.1c0-0.5,0.2-0.8,0.5-1.1c0.3-0.3,0.8-0.4,1.6-0.4h3.4
			c0.9,0,1.7-0.3,2.2-0.8c0.5-0.5,0.8-1.2,0.8-1.9v-1.5c-0.7,0.4-1.4,0.8-2.1,1C164.6,58.8,163.9,58.9,163.1,58.9L163.1,58.9z
			 M179.3,45.8c0.6-0.5,1.2-0.8,1.8-1.1c0.7-0.2,1.4-0.4,2.2-0.4c1.8,0,3.3,0.6,4.3,1.7c0.8,0.9,1.3,2.1,1.3,3.5v5.7
			c0.6,0,1.1,0.1,1.4,0.4c0.3,0.3,0.5,0.7,0.5,1.1c0,0.4-0.2,0.8-0.5,1.1c-0.3,0.3-0.8,0.4-1.6,0.4H186c-0.7,0-1.3-0.1-1.6-0.4
			c-0.3-0.3-0.5-0.7-0.5-1.1c0-0.4,0.2-0.8,0.5-1.1c0.3-0.3,0.8-0.4,1.4-0.4v-5.8c0-0.7-0.2-1.2-0.5-1.5c-0.5-0.4-1.2-0.6-2.1-0.6
			c-0.7,0-1.3,0.1-1.9,0.4c-0.5,0.3-1.2,0.9-2,1.7v5.7c0.8,0,1.3,0.1,1.5,0.2c0.5,0.3,0.7,0.7,0.7,1.3c0,0.4-0.2,0.8-0.5,1.1
			c-0.3,0.3-0.8,0.4-1.6,0.4H176c-0.7,0-1.3-0.1-1.6-0.4c-0.3-0.3-0.5-0.7-0.5-1.1c0-0.6,0.2-1,0.7-1.3c0.2-0.1,0.8-0.2,1.5-0.2
			v-7.5c-0.6,0-1.1-0.1-1.4-0.4c-0.3-0.3-0.5-0.7-0.5-1.1c0-0.4,0.2-0.8,0.5-1.1c0.3-0.3,0.8-0.4,1.6-0.4h2.9V45.8L179.3,45.8z
			 M127.3,55.8c1.4,0,2.5-0.2,3.3-0.7c0.4-0.2,0.6-0.4,0.6-0.7c0-0.4-0.3-0.7-0.8-1c-0.5-0.3-1.6-0.5-3.3-0.7
			c-2.5-0.3-4.1-0.8-4.9-1.5c-0.8-0.7-1.2-1.6-1.2-2.7c0-1.1,0.5-2,1.4-2.7c1.3-1,2.9-1.5,4.9-1.5c0.7,0,1.4,0.1,2,0.2
			c0.7,0.1,1.3,0.3,1.9,0.6c0.2-0.1,0.4-0.2,0.5-0.3s0.3-0.1,0.5-0.1c0.4,0,0.8,0.2,1,0.5c0.3,0.3,0.4,0.8,0.4,1.6v0.7
			c0,0.7-0.1,1.1-0.2,1.4c-0.3,0.5-0.8,0.7-1.3,0.7c-0.4,0-0.7-0.1-1-0.3c-0.3-0.2-0.5-0.5-0.5-0.9c-0.5-0.3-1-0.5-1.6-0.7
			c-0.5-0.2-1.1-0.2-1.7-0.2c-1.2,0-2.1,0.2-2.8,0.6c-0.3,0.2-0.5,0.4-0.5,0.6c0,0.2,0.2,0.5,0.6,0.7c0.3,0.2,1,0.3,2.1,0.5
			c2,0.3,3.5,0.6,4.3,0.8c1,0.4,1.9,0.9,2.4,1.6c0.6,0.7,0.9,1.5,0.9,2.3c0,1.1-0.5,2-1.5,2.8c-1.4,1.1-3.2,1.6-5.4,1.6
			c-0.9,0-1.7-0.1-2.5-0.2c-0.8-0.2-1.4-0.4-2.1-0.7c-0.1,0.1-0.3,0.2-0.5,0.3c-0.2,0.1-0.3,0.1-0.5,0.1c-0.5,0-0.9-0.2-1.1-0.5
			c-0.3-0.3-0.4-0.8-0.4-1.6v-1c0-0.7,0.1-1.3,0.4-1.6c0.3-0.3,0.7-0.5,1.1-0.5c0.4,0,0.7,0.1,0.9,0.3c0.2,0.2,0.4,0.6,0.6,1.1
			c0.5,0.4,1,0.7,1.7,0.9C125.7,55.7,126.4,55.8,127.3,55.8L127.3,55.8z M108.7,58.9c-2.5,0-4.4-0.7-5.9-2.1
			c-1.5-1.4-2.2-3.1-2.2-5.1c0-2.2,0.8-3.9,2.4-5.3c1.6-1.4,3.4-2,5.5-2c1.2,0,2.4,0.2,3.4,0.7c1,0.4,1.8,0.9,2.3,1.4
			c0.7,0.7,1.3,1.7,1.8,2.7c0.3,0.8,0.5,1.6,0.5,2.6v1.3h-12.6c0.3,0.8,0.9,1.4,1.7,1.9c0.8,0.5,1.9,0.7,3.3,0.7
			c1.1,0,2.6-0.2,4.5-0.7c0.8-0.2,1.3-0.3,1.6-0.3c0.4,0,0.8,0.1,1,0.4c0.3,0.3,0.4,0.7,0.4,1.1c0,0.4-0.1,0.7-0.4,1
			c-0.4,0.4-1.4,0.7-2.9,1.1C111.6,58.7,110.1,58.9,108.7,58.9L108.7,58.9z M141.6,47.9c-0.7,0-1.3-0.1-1.6-0.4
			c-0.3-0.3-0.5-0.7-0.5-1.1c0-0.4,0.2-0.8,0.5-1.1c0.3-0.3,0.8-0.4,1.6-0.4h5.5v10.5h3.7c0.7,0,1.3,0.1,1.6,0.4
			c0.3,0.3,0.5,0.7,0.5,1.1c0,0.4-0.2,0.8-0.5,1.1c-0.3,0.3-0.8,0.4-1.6,0.4h-10.4c-0.7,0-1.3-0.1-1.6-0.4c-0.3-0.3-0.5-0.7-0.5-1.1
			c0-0.4,0.2-0.8,0.5-1.1c0.3-0.3,0.8-0.4,1.6-0.4h3.7v-7.5H141.6L141.6,47.9z M198.3,79v-3.2h3.7V79H198.3L198.3,79z M178.4,78.8
			c-0.7,0-1.3-0.1-1.6-0.4c-0.3-0.3-0.5-0.7-0.5-1.1c0-0.4,0.2-0.8,0.5-1.1c0.3-0.3,0.8-0.4,1.6-0.4h5.5v16.3h3.7
			c0.7,0,1.3,0.1,1.6,0.4c0.3,0.3,0.5,0.7,0.5,1.1c0,0.4-0.2,0.8-0.5,1.1c-0.3,0.3-0.8,0.4-1.6,0.4h-10.4c-0.7,0-1.3-0.1-1.6-0.4
			c-0.3-0.3-0.5-0.7-0.5-1.1c0-0.4,0.2-0.8,0.5-1.1c0.3-0.3,0.8-0.4,1.6-0.4h3.7V78.8H178.4L178.4,78.8z M161.5,79v-3.2h3.7V79
			H161.5L161.5,79z M138.1,78.8c-0.7,0-1.3-0.1-1.6-0.4c-0.3-0.3-0.5-0.7-0.5-1.1c0-0.4,0.2-0.8,0.5-1.1c0.3-0.3,0.8-0.4,1.6-0.4
			h3.6v6.9c0.7-0.5,1.5-0.9,2.3-1.1c0.8-0.2,1.6-0.4,2.3-0.4c2.1,0,3.9,0.7,5.4,2.2c1.5,1.5,2.2,3.2,2.2,5.3c0,2-0.7,3.6-2.1,5
			c-1.4,1.3-3.3,2-5.6,2c-0.8,0-1.6-0.1-2.4-0.3c-0.8-0.2-1.5-0.5-2.2-0.9v0.7h-3.6c-0.7,0-1.3-0.1-1.6-0.4
			c-0.3-0.3-0.5-0.7-0.5-1.1c0-0.4,0.2-0.8,0.5-1.1c0.3-0.3,0.8-0.4,1.6-0.4h0.5V78.8H138.1L138.1,78.8z M214.3,84.7
			c-0.7,0-1.3-0.1-1.6-0.4c-0.3-0.3-0.5-0.7-0.5-1.1c0-0.4,0.2-0.8,0.5-1.1c0.3-0.3,0.8-0.4,1.6-0.4h1.1v-2.8c0-0.7,0.1-1.3,0.4-1.6
			c0.3-0.3,0.7-0.5,1.1-0.5c0.4,0,0.8,0.2,1.1,0.5c0.3,0.3,0.4,0.8,0.4,1.6v2.8h5.7c0.7,0,1.3,0.1,1.6,0.4c0.3,0.3,0.5,0.7,0.5,1.1
			c0,0.4-0.2,0.8-0.5,1.1c-0.3,0.3-0.8,0.4-1.6,0.4h-5.7v6.2c0,0.7,0.1,1.1,0.4,1.3c0.4,0.3,1.2,0.5,2.2,0.5c1.6,0,3-0.3,4.3-1
			c0.5-0.3,0.9-0.4,1.2-0.4c0.4,0,0.7,0.1,1,0.4c0.3,0.3,0.4,0.7,0.4,1.1c0,0.4-0.2,0.7-0.5,1c-0.5,0.5-1.5,0.9-2.9,1.3
			c-1.4,0.4-2.7,0.6-3.6,0.6c-1.9,0-3.3-0.4-4.3-1.2c-1-0.8-1.4-1.8-1.4-3v-6.8H214.3L214.3,84.7z M93.2,80.1
			c-0.7,0-1.3-0.1-1.6-0.4c-0.3-0.3-0.5-0.7-0.5-1.1c0-0.5,0.2-0.8,0.5-1.1c0.3-0.3,0.8-0.4,1.6-0.4l4,0c0.7,0,1.3,0.1,1.6,0.4
			c0.3,0.3,0.5,0.6,0.5,1.1c0,0.4-0.2,0.8-0.5,1.1c-0.3,0.3-0.8,0.4-1.4,0.4v8.7c0,1.9-0.7,3.5-2,4.8c-1.4,1.3-3,2-4.9,2
			c-0.9,0-1.8-0.2-2.7-0.5c-0.8-0.3-1.6-0.8-2.2-1.5c-0.7-0.6-1.2-1.3-1.5-2s-0.6-1.6-0.6-2.8v-8.7c-0.6,0-1.1-0.1-1.4-0.4
			c-0.3-0.3-0.5-0.7-0.5-1.1c0-0.5,0.2-0.8,0.5-1.1c0.3-0.3,0.8-0.4,1.6-0.4l4,0c0.7,0,1.3,0.1,1.6,0.4c0.3,0.3,0.5,0.7,0.5,1.1
			c0,0.5-0.2,0.8-0.5,1.1c-0.3,0.3-0.8,0.4-1.6,0.4h-1.1v9c0,0.9,0.4,1.7,1.1,2.4c0.8,0.7,1.7,1.1,2.8,1.1c0.7,0,1.4-0.2,2-0.5
			c0.6-0.3,1.1-0.8,1.5-1.5c0.2-0.4,0.4-0.9,0.4-1.5v-9H93.2L93.2,80.1z M47.2,95.1c-0.4,0-0.8-0.2-1.1-0.5
			c-0.3-0.3-0.5-0.7-0.5-1.1c0-0.3,0.1-0.6,0.2-0.8c0.2-0.2,0.5-0.5,1-0.7l9.9-5.5l-9.9-5.5c-0.5-0.3-0.8-0.5-1-0.7
			c-0.2-0.2-0.2-0.5-0.2-0.8c0-0.4,0.2-0.8,0.5-1.1c0.3-0.3,0.7-0.5,1.1-0.5c0.3,0,0.7,0.1,1.2,0.4l14.8,8.2l-14.8,8.2
			C47.9,95,47.5,95.1,47.2,95.1L47.2,95.1z M122.3,85c-0.4,0-0.8-0.1-1-0.4c-0.3-0.3-0.4-0.7-0.4-1.1c0-0.3,0-0.5,0.1-0.7
			c0.1-0.2,0.2-0.3,0.4-0.5c0.2-0.1,0.6-0.3,1.1-0.4c0.8-0.2,1.5-0.4,2.3-0.5c0.8-0.1,1.5-0.2,2.1-0.2c1.9,0,3.4,0.4,4.4,1.2
			c1.1,0.8,1.6,1.9,1.6,3.4v6.3h0.5c0.7,0,1.3,0.1,1.6,0.4c0.3,0.3,0.5,0.7,0.5,1.1c0,0.4-0.2,0.8-0.5,1.1c-0.3,0.3-0.8,0.4-1.6,0.4
			H130v-0.7c-0.8,0.4-1.6,0.7-2.5,0.9c-0.9,0.2-1.8,0.3-2.5,0.3c-1.6,0-3-0.4-4-1.3c-1-0.9-1.5-1.8-1.5-2.9c0-1.3,0.7-2.5,2-3.6
			c1.3-1.1,3.1-1.7,5.4-1.7c0.9,0,2,0.1,3.2,0.3v-0.7c0-0.5-0.2-0.8-0.6-1.1c-0.4-0.3-1.1-0.4-2.3-0.4c-0.9,0-2.1,0.2-3.5,0.5
			C123.1,84.9,122.6,85,122.3,85L122.3,85z M108.9,92.6c1.4,0,2.5-0.2,3.3-0.7c0.4-0.2,0.6-0.4,0.6-0.7c0-0.4-0.3-0.7-0.8-1
			c-0.5-0.3-1.6-0.5-3.3-0.7c-2.5-0.3-4.1-0.8-4.9-1.5c-0.8-0.7-1.2-1.6-1.2-2.7c0-1.1,0.5-2,1.4-2.7c1.3-1,2.9-1.5,4.9-1.5
			c0.7,0,1.4,0.1,2,0.2c0.7,0.1,1.3,0.3,1.9,0.6c0.2-0.1,0.4-0.2,0.5-0.3c0.2-0.1,0.3-0.1,0.5-0.1c0.4,0,0.8,0.2,1,0.5
			c0.3,0.3,0.4,0.8,0.4,1.6v0.7c0,0.7-0.1,1.1-0.2,1.4c-0.3,0.5-0.8,0.7-1.3,0.7c-0.4,0-0.7-0.1-1-0.3c-0.3-0.2-0.5-0.5-0.5-0.9
			c-0.5-0.3-1-0.5-1.6-0.7c-0.5-0.2-1.1-0.2-1.7-0.2c-1.2,0-2.1,0.2-2.8,0.6c-0.3,0.2-0.5,0.4-0.5,0.6c0,0.2,0.2,0.5,0.6,0.7
			c0.3,0.2,1,0.3,2.1,0.5c2,0.3,3.5,0.6,4.3,0.8c1,0.4,1.9,0.9,2.4,1.6c0.6,0.7,0.9,1.5,0.9,2.3c0,1.1-0.5,2-1.5,2.8
			c-1.4,1.1-3.2,1.6-5.4,1.6c-0.9,0-1.7-0.1-2.5-0.2c-0.8-0.2-1.4-0.4-2.1-0.7c-0.1,0.1-0.3,0.2-0.5,0.3c-0.2,0.1-0.3,0.1-0.5,0.1
			c-0.5,0-0.9-0.2-1.1-0.5c-0.3-0.3-0.4-0.8-0.4-1.6v-1c0-0.7,0.1-1.3,0.4-1.6c0.3-0.3,0.7-0.5,1.1-0.5c0.4,0,0.7,0.1,0.9,0.3
			c0.2,0.2,0.4,0.6,0.6,1.1c0.5,0.4,1,0.7,1.7,0.9C107.3,92.5,108,92.6,108.9,92.6L108.9,92.6z M237.6,91.7l3.6-7.1
			c-0.7,0-1.1-0.1-1.5-0.4c-0.3-0.3-0.5-0.7-0.5-1.1c0-0.4,0.2-0.8,0.5-1.1c0.3-0.3,0.8-0.4,1.6-0.4h2.9c0.7,0,1.3,0.1,1.6,0.4
			c0.3,0.3,0.5,0.7,0.5,1.1c0,0.4-0.1,0.8-0.4,1c-0.3,0.3-0.7,0.4-1.2,0.5l-7,13.9c0.8,0,1.3,0.1,1.5,0.2c0.5,0.3,0.7,0.7,0.7,1.3
			c0,0.4-0.2,0.8-0.5,1.1c-0.3,0.3-0.8,0.4-1.6,0.4h-6.7c-0.7,0-1.3-0.1-1.6-0.4c-0.3-0.3-0.5-0.7-0.5-1.1c0-0.5,0.2-0.8,0.5-1.1
			c0.3-0.3,0.8-0.4,1.6-0.4h3.1l1.7-3.4l-5.3-10.4c-0.5-0.1-0.9-0.2-1.1-0.5c-0.3-0.3-0.4-0.6-0.4-1c0-0.5,0.2-0.8,0.5-1.1
			c0.3-0.3,0.8-0.4,1.6-0.4h2.8c0.7,0,1.3,0.1,1.6,0.4c0.3,0.3,0.5,0.7,0.5,1.1c0,0.4-0.2,0.8-0.5,1.1c-0.3,0.3-0.8,0.4-1.5,0.4
			L237.6,91.7L237.6,91.7z M196.8,84.7c-0.7,0-1.3-0.1-1.6-0.4c-0.3-0.3-0.5-0.7-0.5-1.1c0-0.4,0.2-0.8,0.5-1.1
			c0.3-0.3,0.8-0.4,1.6-0.4h5.5v10.5h3.7c0.7,0,1.3,0.1,1.6,0.4c0.3,0.3,0.5,0.7,0.5,1.1c0,0.4-0.2,0.8-0.5,1.1
			c-0.3,0.3-0.8,0.4-1.6,0.4h-10.4c-0.7,0-1.3-0.1-1.6-0.4c-0.3-0.3-0.5-0.7-0.5-1.1c0-0.4,0.2-0.8,0.5-1.1c0.3-0.3,0.8-0.4,1.6-0.4
			h3.7v-7.5H196.8L196.8,84.7z M160,84.7c-0.7,0-1.3-0.1-1.6-0.4c-0.3-0.3-0.5-0.7-0.5-1.1c0-0.4,0.2-0.8,0.5-1.1
			c0.3-0.3,0.8-0.4,1.6-0.4h5.5v10.5h3.7c0.7,0,1.3,0.1,1.6,0.4c0.3,0.3,0.5,0.7,0.5,1.1c0,0.4-0.2,0.8-0.5,1.1
			c-0.3,0.3-0.8,0.4-1.6,0.4h-10.4c-0.7,0-1.3-0.1-1.6-0.4c-0.3-0.3-0.5-0.7-0.5-1.1c0-0.4,0.2-0.8,0.5-1.1c0.3-0.3,0.8-0.4,1.6-0.4
			h3.7v-7.5H160L160,84.7z M85.1,116.9c-0.7,0-1.3-0.1-1.6-0.4c-0.3-0.3-0.5-0.7-0.5-1.1c0-0.5,0.2-0.8,0.5-1.1
			c0.3-0.3,0.8-0.4,1.6-0.4l7.1,0c2.1,0,3.7,0.6,4.9,1.7c1.2,1.1,1.8,2.5,1.8,4.1c0,0.9-0.2,1.7-0.6,2.5c-0.3,0.6-0.8,1.2-1.5,1.8
			c-0.7,0.6-1.5,1-2.2,1.3c-0.8,0.3-1.7,0.4-3,0.4h-2.9v3.2h3.1c0.7,0,1.3,0.1,1.6,0.4c0.3,0.3,0.5,0.7,0.5,1.1
			c0,0.4-0.2,0.8-0.5,1.1c-0.3,0.3-0.8,0.4-1.6,0.4h-6.6c-0.7,0-1.3-0.1-1.6-0.4c-0.3-0.3-0.5-0.7-0.5-1.1c0-0.4,0.2-0.8,0.5-1.1
			c0.3-0.3,0.8-0.4,1.6-0.4h0.5v-12H85.1L85.1,116.9z M47.2,131.9c-0.4,0-0.8-0.2-1.1-0.5c-0.3-0.3-0.5-0.7-0.5-1.1
			c0-0.3,0.1-0.6,0.2-0.8c0.2-0.2,0.5-0.5,1-0.7l9.9-5.5l-9.9-5.5c-0.5-0.3-0.8-0.5-1-0.7c-0.2-0.2-0.2-0.5-0.2-0.8
			c0-0.4,0.2-0.8,0.5-1.1c0.3-0.3,0.7-0.5,1.1-0.5c0.3,0,0.7,0.1,1.2,0.4l14.8,8.2l-14.8,8.2C47.9,131.8,47.5,131.9,47.2,131.9
			L47.2,131.9z M200.7,132.5c-2.5,0-4.4-0.7-5.9-2.1c-1.5-1.4-2.2-3.1-2.2-5.1c0-2.2,0.8-3.9,2.4-5.3c1.6-1.4,3.4-2,5.5-2
			c1.2,0,2.4,0.2,3.4,0.7c1,0.4,1.8,0.9,2.3,1.4c0.7,0.7,1.3,1.7,1.8,2.7c0.3,0.8,0.5,1.6,0.5,2.6v1.3h-12.6
			c0.3,0.8,0.9,1.4,1.7,1.9c0.8,0.5,1.9,0.7,3.3,0.7c1.1,0,2.6-0.2,4.5-0.7c0.8-0.2,1.3-0.3,1.6-0.3c0.4,0,0.8,0.1,1,0.4
			c0.3,0.3,0.4,0.7,0.4,1.1c0,0.4-0.2,0.7-0.4,1c-0.4,0.4-1.4,0.7-2.9,1.1C203.6,132.3,202.1,132.5,200.7,132.5L200.7,132.5z
			 M182.5,129.4c1.4,0,2.5-0.2,3.3-0.7c0.4-0.2,0.6-0.4,0.6-0.7c0-0.4-0.3-0.7-0.8-1c-0.5-0.3-1.6-0.5-3.3-0.7
			c-2.5-0.3-4.1-0.8-4.9-1.5c-0.8-0.7-1.2-1.6-1.2-2.7c0-1.1,0.5-2,1.4-2.7c1.3-1,2.9-1.5,4.9-1.5c0.7,0,1.4,0.1,2,0.2
			c0.7,0.1,1.3,0.3,1.9,0.6c0.2-0.1,0.4-0.2,0.5-0.3c0.2-0.1,0.3-0.1,0.5-0.1c0.4,0,0.8,0.2,1,0.5c0.3,0.3,0.4,0.8,0.4,1.6v0.7
			c0,0.7-0.1,1.1-0.2,1.4c-0.3,0.5-0.8,0.7-1.3,0.7c-0.4,0-0.7-0.1-1-0.3c-0.3-0.2-0.5-0.5-0.5-0.9c-0.5-0.3-1-0.5-1.6-0.7
			c-0.5-0.2-1.1-0.2-1.7-0.2c-1.2,0-2.1,0.2-2.8,0.6c-0.3,0.2-0.5,0.4-0.5,0.6c0,0.2,0.2,0.5,0.6,0.7c0.3,0.2,1,0.3,2.1,0.5
			c2,0.3,3.5,0.6,4.3,0.8c1,0.4,1.9,0.9,2.4,1.6c0.6,0.7,0.9,1.5,0.9,2.3c0,1.1-0.5,2-1.5,2.8c-1.4,1.1-3.2,1.6-5.4,1.6
			c-0.9,0-1.7-0.1-2.5-0.2c-0.8-0.2-1.4-0.4-2.1-0.7c-0.2,0.1-0.3,0.2-0.5,0.3c-0.2,0.1-0.3,0.1-0.5,0.1c-0.5,0-0.9-0.2-1.1-0.5
			c-0.3-0.3-0.4-0.8-0.4-1.6v-1c0-0.7,0.1-1.3,0.4-1.6c0.3-0.3,0.7-0.5,1.1-0.5c0.4,0,0.7,0.1,0.9,0.3c0.3,0.2,0.4,0.6,0.6,1.1
			c0.5,0.4,1,0.7,1.7,0.9C180.9,129.3,181.6,129.4,182.5,129.4L182.5,129.4z M164,132.5c-1.4,0-2.7-0.3-4-1
			c-1.3-0.6-2.3-1.5-2.9-2.6c-0.7-1.1-1-2.3-1-3.5c0-1.2,0.3-2.4,1-3.6c0.7-1.2,1.7-2.1,2.9-2.8c1.3-0.7,2.6-1,4-1
			c1.4,0,2.7,0.3,4,1c1.3,0.7,2.3,1.6,2.9,2.8c0.7,1.2,1,2.4,1,3.6c0,1.2-0.3,2.3-1,3.4c-0.7,1.1-1.6,2-2.9,2.6
			C166.8,132.2,165.4,132.5,164,132.5L164,132.5z M141.8,119.4c0.7-0.5,1.5-0.9,2.2-1.1c0.8-0.2,1.6-0.4,2.4-0.4
			c2.1,0,3.9,0.7,5.4,2.1c1.5,1.4,2.2,3.1,2.2,4.9c0,2-0.9,3.7-2.6,5c-1.5,1.1-3.1,1.6-4.9,1.6c-0.8,0-1.6-0.1-2.3-0.3
			c-0.8-0.2-1.5-0.6-2.3-1v5h1.8c0.7,0,1.3,0.1,1.6,0.4c0.3,0.3,0.5,0.7,0.5,1.1c0,0.4-0.2,0.8-0.5,1.1c-0.3,0.3-0.8,0.4-1.6,0.4
			h-5.4c-0.7,0-1.3-0.1-1.6-0.4c-0.3-0.3-0.5-0.7-0.5-1.1c0-0.5,0.2-0.8,0.5-1.1c0.3-0.3,0.8-0.4,1.6-0.4h0.5v-13.9h-0.5
			c-0.7,0-1.3-0.1-1.6-0.4c-0.3-0.3-0.5-0.7-0.5-1.1c0-0.4,0.2-0.8,0.5-1.1c0.3-0.3,0.8-0.4,1.6-0.4h3.6V119.4L141.8,119.4z
			 M126.6,120.3c1.3-0.9,2.3-1.5,3-1.9c0.7-0.3,1.4-0.5,2.1-0.5c1,0,2,0.4,2.9,1.1c0.6,0.5,1,1,1,1.5c0,0.4-0.2,0.8-0.5,1.1
			c-0.3,0.3-0.7,0.5-1.1,0.5c-0.4,0-0.8-0.2-1.2-0.6c-0.4-0.4-0.8-0.6-1.1-0.6c-0.4,0-1.1,0.3-1.9,0.8c-0.9,0.5-1.9,1.3-3.2,2.4v4.6
			h4.4c0.7,0,1.3,0.1,1.6,0.4c0.3,0.3,0.5,0.7,0.5,1.1c0,0.4-0.2,0.8-0.5,1.1c-0.3,0.3-0.8,0.4-1.6,0.4h-9.3c-0.7,0-1.3-0.1-1.6-0.4
			c-0.3-0.3-0.5-0.7-0.5-1.1c0-0.4,0.2-0.8,0.5-1.1c0.3-0.3,0.8-0.4,1.6-0.4h1.8v-7.5h-1.1c-0.7,0-1.3-0.1-1.6-0.4
			c-0.3-0.3-0.5-0.7-0.5-1.1c0-0.4,0.2-0.8,0.5-1.1c0.3-0.3,0.8-0.4,1.6-0.4h4.2V120.3L126.6,120.3z M111.1,121.5
			c-0.7,0-1.3-0.1-1.6-0.4c-0.3-0.3-0.5-0.7-0.5-1.1c0-0.4,0.2-0.8,0.5-1.1c0.3-0.3,0.8-0.4,1.6-0.4h4.2v10.5c0.6,0,1.1,0.1,1.4,0.4
			c0.3,0.3,0.5,0.7,0.5,1.1c0,0.4-0.2,0.8-0.5,1.1c-0.3,0.3-0.8,0.4-1.6,0.4h-2.9v-0.7c-0.9,0.4-1.7,0.7-2.5,0.9
			c-0.8,0.2-1.6,0.3-2.3,0.3c-1,0-1.9-0.2-2.6-0.6c-0.7-0.4-1.3-1-1.8-1.8c-0.3-0.5-0.5-1.2-0.5-2v-6.6h-0.5c-0.7,0-1.3-0.1-1.6-0.4
			c-0.3-0.3-0.5-0.7-0.5-1.1c0-0.4,0.2-0.8,0.5-1.1c0.3-0.3,0.8-0.4,1.6-0.4h3.6v9.1c0,0.6,0.2,1.1,0.5,1.4c0.3,0.3,0.8,0.5,1.4,0.5
			c0.6,0,1.3-0.1,2-0.4c0.7-0.2,1.6-0.7,2.6-1.3v-6.3H111.1L111.1,121.5z"/>
	</g>
</g>
</svg>
