<?xml version="1.0" encoding="utf-8"?>
<!-- Generator: Adobe Illustrator 22.1.0, SVG Export Plug-In . SVG Version: 6.00 Build 0)  -->
<svg version="1.1" id="Layer_1" xmlns="http://www.w3.org/2000/svg" xmlns:xlink="http://www.w3.org/1999/xlink" x="0px" y="0px"
	 viewBox="0 0 30 30" enable-background="new 0 0 30 30" xml:space="preserve">
<g>
	<path fill="#E82A5C" d="M15,29.5C7,29.5,0.5,23,0.5,15S7,0.5,15,0.5S29.5,7,29.5,15S23,29.5,15,29.5z M15.3,23.1
		c-1.6,0-2.8,1.3-2.8,2.9s1.2,3,2.8,3c1.6,0,2.8-1.2,2.8-3C18.2,24.3,17,23.1,15.3,23.1z M13.5,20.9h3.7l0.6-20h-4.8L13.5,20.9z"/>
	<path d="M12.4,1.2l0,0.2l0.6,19l0,1h1h2.7h1l0-1l0.6-19l0-0.1C24.4,2.8,29,8.4,29,15c0,6.9-5,12.6-11.6,13.8
		c0.8-0.6,1.2-1.6,1.2-2.7c0-2-1.4-3.5-3.3-3.5c-1.9,0-3.3,1.5-3.3,3.5c0,1.2,0.5,2.2,1.4,2.8C6.4,28.1,1,22.2,1,15
		C1,8.2,5.9,2.5,12.4,1.2 M15,0C6.7,0,0,6.7,0,15c0,8.3,6.7,15,15,15s15-6.7,15-15C30,6.7,23.3,0,15,0L15,0z M14,20.4l-0.6-19h3.8
		l-0.6,19H14L14,20.4z M15.3,28.5c-1.4,0-2.3-1.1-2.3-2.5c0-1.4,1-2.5,2.3-2.5c1.4,0,2.3,1,2.3,2.5C17.7,27.4,16.7,28.5,15.3,28.5
		L15.3,28.5z"/>
</g>
<g>
</g>
</svg>
