<?xml version="1.0" encoding="utf-8"?>
<!-- Generator: Adobe Illustrator 22.1.0, SVG Export Plug-In . SVG Version: 6.00 Build 0)  -->
<svg version="1.1" id="Layer_1" xmlns="http://www.w3.org/2000/svg" xmlns:xlink="http://www.w3.org/1999/xlink" x="0px" y="0px"
	 viewBox="0 0 569.8 47.7" enable-background="new 0 0 569.8 47.7" xml:space="preserve">
<g>
	<path fill="#E8B08B" d="M23.2,0.8c7.1,0,12.7,3.1,16.4,6.8L33,14.1c-2.8-2.7-6-4.1-9.8-4.1c-3.8,0-7.1,1.4-9.8,4.1
		c-2.7,2.7-4.1,6-4.1,9.8c0,3.8,1.4,7.1,4.1,9.8c2.7,2.7,6,4.1,9.8,4.1c5.9,0,10.5-3.7,12.5-8h-13v-8.8h23.5
		c0.7,8.5-2.1,14.7-6.7,19.2c-4.6,4.5-10,6.8-16.4,6.8c-6.4,0-11.9-2.3-16.3-6.8C2.3,35.8,0,30.4,0,23.9c0-6.4,2.3-11.8,6.8-16.4
		C11.3,3,16.7,0.7,23.2,0.8L23.2,0.8z"/>
	<path fill="#E8B08B" d="M50.2,1.1h9.2v45.7h-9.2V1.1z"/>
	<path fill="#E8B08B" d="M84.2,0.1l20.9,46.6h-9.9L92,39.8H76.4l-3.1,6.9h-9.9L84.2,0.1z M88.4,31.7L84.3,22L80,31.7H88.4z"/>
	<path fill="#E8B08B" d="M136.6,26.3V1h9.2v46.7l-27.5-26.2v25.4h-9.2V0.1L136.6,26.3z"/>
	<path fill="#E8B08B" d="M177.6,1.1v36.6H196v9.1h-27.5V1.1H177.6z"/>
	<path fill="#E8B08B" d="M224.8,28.7V1.1h9.2v27.7c0,5.1-1.8,9.5-5.4,13.1c-3.6,3.6-8,5.4-13,5.4c-5.1,0-9.5-1.8-13.1-5.4
		c-3.6-3.6-5.4-8-5.4-13.1V1.1h9.2v27.6c0,5,4.2,9.2,9.2,9.2C220.5,37.9,224.8,33.7,224.8,28.7z"/>
	<path fill="#E8B08B" d="M239.7,1.1h9.2v45.7h-9.2V1.1z"/>
	<path fill="#E8B08B" d="M276.1,0.8c7.1,0,12.7,3.1,16.4,6.8l-6.5,6.5c-2.8-2.7-6-4.1-9.8-4.1c-3.8,0-7.1,1.4-9.8,4.1
		c-2.7,2.7-4.1,6-4.1,9.8c0,3.8,1.4,7.1,4.1,9.8c2.7,2.7,6,4.1,9.8,4.1c5.9,0,10.5-3.7,12.5-8h-13v-8.8h23.5
		c0.7,8.5-2.1,14.7-6.7,19.2c-4.6,4.5-10,6.8-16.4,6.8c-6.4,0-11.9-2.3-16.3-6.8c-4.5-4.5-6.8-10-6.8-16.4c0-6.4,2.3-11.8,6.8-16.4
		C264.2,3,269.6,0.7,276.1,0.8L276.1,0.8z"/>
	<path fill="#E8B08B" d="M303.1,1.1h9.2v45.7h-9.2V1.1z"/>
	<path fill="#E8B08B" d="M344.2,1.1v36.6h18.4v9.1H335V1.1H344.2z"/>
	<path fill="#E8B08B" d="M385.6,0.1l20.9,46.6h-9.9l-3.1-6.9h-15.6l-3.1,6.9h-9.9L385.6,0.1z M389.8,31.7l-4.2-9.7l-4.2,9.7H389.8z"
		/>
	<path fill="#E8B08B" d="M432.8,30.7L455.2,0v46.8H446V27.8L432.8,46l-13.2-18.2v18.9h-9.2V0L432.8,30.7z"/>
	<path fill="#E8B08B" d="M488.4,1v9.2H470v9.2h13.8v9.2H470v9.2h18.4v9.1h-27.5V1H488.4z"/>
	<path fill="#E8B08B" d="M492.4,1.1h14.9c5.1,0,9.2,1.9,12,4.6c2.8,2.8,4.4,5.3,4.4,10.4v1.2c0,3.1-1,6-2.9,8.7
		c-1.6,2.2-2.9,3.2-5.5,4.2l10.6,16.5h-11.2l-13.1-20.2v20.2h-9.2L492.4,1.1z M514.2,16.4c0-1.7-0.6-3.1-1.8-4.4
		c-1.2-1.2-3.5-1.8-5.7-1.8h-5.2v12.6h3.5v0h3.1C511.5,22.8,514.2,19.9,514.2,16.4z"/>
	<path fill="#E8B08B" d="M549,0.1l20.9,46.6h-9.9l-3.1-6.9h-15.6l-3.1,6.9h-9.9L549,0.1z M553.2,31.7L549,22l-4.2,9.7H553.2z"/>
</g>
</svg>
