<?xml version="1.0" encoding="utf-8"?>
<!-- Generator: Adobe Illustrator 22.1.0, SVG Export Plug-In . SVG Version: 6.00 Build 0)  -->
<svg version="1.1" id="Layer_1" xmlns="http://www.w3.org/2000/svg" xmlns:xlink="http://www.w3.org/1999/xlink" x="0px" y="0px"
	 viewBox="0 0 270 260" enable-background="new 0 0 270 260" xml:space="preserve">
<path fill="#FCFAFA" d="M226.5,15.4H72.7c-5.9,0-10.8,4.8-10.8,10.7V209c0,5.9,4.8,10.8,10.8,10.8h153.8c5.9,0,10.8-4.8,10.8-10.8
	V26.2C237.2,20.2,232.4,15.4,226.5,15.4z M232.7,203.6c0,5.9-4.8,10.8-10.8,10.8H77.2c-5.9,0-10.8-4.8-10.8-10.8V31.5
	c0-5.9,4.8-10.8,10.8-10.8h144.7c5.9,0,10.8,4.8,10.8,10.8V203.6z"/>
<path fill="#FCFAFA" d="M174.4,46.6h-49.7c-1.7,0-3-1.4-3-3V28.6c0-1.7,1.4-3,3-3h49.7c1.7,0,3,1.4,3,3v14.9
	C177.4,45.2,176.1,46.6,174.4,46.6z"/>
<rect x="77.1" y="112.2" fill="#FCFAFA" width="145" height="3"/>
<rect x="77.1" y="196.9" fill="#FCFAFA" width="145" height="3"/>
<rect x="77.1" y="154.6" fill="#FCFAFA" width="145" height="3"/>
<g>
	<path fill="#FCFAFA" d="M117,100.8c0,1.9-0.3,3.6-1,5c-0.7,1.5-1.7,2.6-3,3.4s-2.9,1.2-4.7,1.2h-6.8V91.3h6.9c2.8,0,5,0.9,6.4,2.6
		C116.3,95.7,117,98,117,100.8z M114.3,100.8c0-2.2-0.5-4-1.4-5.3c-0.9-1.3-2.4-1.9-4.3-1.9h-4.3v14.6h4.1c1.8,0,3.2-0.6,4.3-1.9
		S114.3,103.2,114.3,100.8z"/>
	<path fill="#FCFAFA" d="M125.6,96.5c2,0,3.5,0.7,4.5,2c1,1.3,1.5,3,1.5,5.1v0.7h-9.7c0.1,1.3,0.5,2.4,1.3,3.2
		c0.7,0.8,1.8,1.2,3.3,1.2c0.7,0,1.3-0.1,1.9-0.3c0.5-0.2,1.3-0.5,2.2-0.9l0.8,2c-1.7,1-3.3,1.5-5,1.5c-2.4,0-4.2-0.6-5.5-1.9
		c-1.3-1.3-1.9-3-1.9-5.2c0-1.4,0.3-2.7,0.8-3.7c0.5-1.1,1.3-1.9,2.3-2.5S124.2,96.5,125.6,96.5z M125.5,98.8c-1,0-1.9,0.3-2.5,1
		c-0.6,0.6-1,1.5-1.1,2.7h7C128.6,100,127.4,98.8,125.5,98.8z"/>
	<path fill="#FCFAFA" d="M137.8,110.9c-0.7,0-1.4-0.1-2.4-0.3c-0.9-0.2-1.6-0.5-2.2-0.9l0.8-1.9c1.3,0.6,2.5,0.9,3.7,0.9
		c0.9,0,1.6-0.2,2.2-0.5c0.5-0.3,0.8-0.7,0.8-1.3c0-0.9-1-1.7-3-2.4c-3-1-4.5-2.3-4.5-4.1c0-1.2,0.5-2.2,1.4-2.9
		c0.9-0.7,2.2-1.1,3.8-1.1c0.6,0,1.4,0.1,2.3,0.4c0.9,0.2,1.6,0.6,2.1,0.9l-0.8,1.8c-0.7-0.3-1.3-0.5-1.8-0.7
		c-0.5-0.2-1.1-0.2-1.8-0.2c-0.7,0-1.3,0.2-1.8,0.5c-0.5,0.3-0.7,0.7-0.7,1.2c0,0.4,0.3,0.7,0.7,1c0.5,0.3,1.2,0.6,2.1,0.9
		c3.1,1.1,4.6,2.6,4.6,4.4c0,1.3-0.5,2.3-1.4,3C141,110.5,139.6,110.9,137.8,110.9z"/>
	<path fill="#FCFAFA" d="M149,92.7c0,0.5-0.2,0.9-0.5,1.2c-0.3,0.3-0.7,0.5-1.2,0.5s-0.9-0.2-1.2-0.5c-0.3-0.3-0.5-0.7-0.5-1.2
		c0-0.5,0.2-0.9,0.5-1.2c0.3-0.3,0.7-0.5,1.2-0.5s0.9,0.2,1.2,0.5C148.8,91.8,149,92.2,149,92.7z M148.7,96.8v13.7h-2.7V96.8H148.7z
		"/>
	<path fill="#FCFAFA" d="M163.7,111.7c0,1-0.3,1.9-0.8,2.7c-0.5,0.8-1.3,1.4-2.2,1.9s-2.2,0.7-3.5,0.7c-0.7,0-1.5-0.1-2.5-0.4
		c-1-0.3-1.8-0.6-2.4-1l0.8-1.9c0.9,0.4,1.6,0.7,2.1,0.9c0.5,0.2,1.1,0.2,1.8,0.2c1.2,0,2.1-0.3,2.8-0.8c0.7-0.5,1.1-1.3,1.1-2.3
		v-1.8c-0.5,0.3-1,0.5-1.6,0.7s-1,0.3-1.4,0.3c-1.4,0-2.6-0.3-3.6-0.9c-1-0.6-1.8-1.5-2.4-2.6c-0.5-1.1-0.8-2.4-0.8-3.8
		c0-1.4,0.3-2.6,0.8-3.7c0.6-1.1,1.4-1.9,2.4-2.5s2.2-0.9,3.6-0.9c0.5,0,1.1,0.1,1.7,0.3c0.7,0.2,1.3,0.6,1.9,1l0.5-1h1.5V111.7z
		 M161,107.4v-7.6c-0.4-0.4-0.9-0.6-1.4-0.8c-0.5-0.2-1-0.3-1.6-0.3c-1.3,0-2.2,0.4-3,1.3c-0.7,0.9-1.1,2-1.1,3.4
		c0,1.5,0.4,2.7,1.1,3.6c0.7,0.9,1.7,1.4,3,1.4c0.6,0,1.2-0.1,1.6-0.3C160.1,108.1,160.5,107.8,161,107.4z"/>
	<path fill="#FCFAFA" d="M174.3,98.7c-0.6,0-1.3,0.2-2.1,0.6c-0.8,0.4-1.5,0.9-2.2,1.6v9.6h-2.7V96.8h1.9l0.5,1.8
		c0.7-0.7,1.6-1.2,2.5-1.6c0.9-0.4,1.8-0.6,2.7-0.6c1.5,0,2.6,0.5,3.3,1.4c0.7,0.9,1.1,2.2,1.1,3.7v9h-2.7v-8.8c0-1-0.2-1.8-0.5-2.3
		C175.7,98.9,175.1,98.7,174.3,98.7z"/>
</g>
<g>
	<path fill="#FCFAFA" d="M101.3,133.5h2.7v12.1c0,1.6,0.4,2.9,1.3,3.8c0.9,0.9,2,1.4,3.5,1.4c1.5,0,2.6-0.5,3.5-1.4
		c0.8-0.9,1.3-2.2,1.3-3.8v-12.1h2.7v12.3c0,1.4-0.3,2.6-0.9,3.7s-1.5,1.9-2.6,2.5c-1.1,0.6-2.4,0.9-3.9,0.9c-1.5,0-2.8-0.3-3.9-0.9
		c-1.1-0.6-2-1.5-2.6-2.6c-0.6-1.1-0.9-2.3-0.9-3.7V133.5z"/>
	<path fill="#FCFAFA" d="M124,153c-0.7,0-1.4-0.1-2.4-0.3s-1.6-0.5-2.2-0.9l0.8-1.9c1.3,0.6,2.5,0.9,3.7,0.9c0.9,0,1.6-0.2,2.2-0.5
		c0.5-0.3,0.8-0.7,0.8-1.3c0-0.9-1-1.7-3-2.4c-3-1-4.5-2.3-4.5-4.1c0-1.2,0.5-2.2,1.4-2.9c0.9-0.7,2.2-1.1,3.8-1.1
		c0.6,0,1.4,0.1,2.3,0.4c0.9,0.2,1.6,0.6,2.1,0.9l-0.8,1.8c-0.7-0.3-1.3-0.5-1.8-0.7c-0.5-0.2-1.1-0.2-1.8-0.2
		c-0.7,0-1.3,0.2-1.8,0.5c-0.5,0.3-0.7,0.7-0.7,1.2c0,0.4,0.3,0.7,0.7,1c0.5,0.3,1.2,0.6,2.1,0.9c3.1,1.1,4.6,2.6,4.6,4.4
		c0,1.3-0.5,2.3-1.4,3C127.1,152.6,125.8,153,124,153z"/>
	<path fill="#FCFAFA" d="M137.2,141c-1.2,0-2.6,0.3-3.9,0.9l-0.8-2.1c0.5-0.3,1.2-0.6,2.2-0.9c1-0.2,1.8-0.4,2.4-0.4
		c1,0,2,0.2,2.8,0.6c0.8,0.4,1.5,1,2,1.7c0.5,0.7,0.7,1.5,0.7,2.4v9.3h-1.9l-0.3-1.3c-0.5,0.5-1.1,0.8-1.9,1.2
		c-0.7,0.3-1.4,0.5-2.1,0.5c-1.6,0-2.7-0.4-3.6-1.2c-0.8-0.8-1.2-1.8-1.2-3.1c0-1.3,0.5-2.4,1.4-3.1c0.9-0.7,2.1-1.1,3.6-1.1h3.2
		c0-1.1-0.2-2-0.6-2.6C138.9,141.3,138.2,141,137.2,141z M136.7,146.2c-0.8,0-1.4,0.2-1.9,0.7s-0.7,1-0.7,1.7c0,0.6,0.2,1.1,0.6,1.5
		c0.4,0.4,1,0.6,1.7,0.6c0.7,0,1.3-0.2,1.9-0.5c0.6-0.3,1.2-0.8,1.7-1.3v-2.8H136.7z"/>
	<path fill="#FCFAFA" d="M158.6,145.9c0,1.4-0.3,2.6-0.8,3.7c-0.6,1.1-1.4,1.9-2.4,2.5s-2.2,0.9-3.6,0.9c-0.5,0-1-0.1-1.6-0.3
		c-0.6-0.2-1.2-0.5-1.8-0.9l-0.5,0.8h-1.5V133l2.7-0.3v6.7c0.5-0.3,1-0.5,1.5-0.6s0.9-0.2,1.3-0.2c1.4,0,2.6,0.3,3.6,0.9
		c1,0.6,1.8,1.5,2.4,2.5C158.3,143.1,158.6,144.4,158.6,145.9z M155.8,145.9c0-1.5-0.4-2.7-1.1-3.6c-0.7-0.9-1.7-1.4-3-1.4
		c-1.1,0-2,0.3-2.8,1v7.9c0.8,0.6,1.7,0.9,2.8,0.9c1.3,0,2.2-0.4,3-1.3C155.4,148.4,155.8,147.3,155.8,145.9z"/>
	<path fill="#FCFAFA" d="M164.1,134.8c0,0.5-0.2,0.9-0.5,1.2c-0.3,0.3-0.7,0.5-1.2,0.5c-0.5,0-0.9-0.2-1.2-0.5
		c-0.3-0.3-0.5-0.7-0.5-1.2c0-0.5,0.2-0.9,0.5-1.2c0.3-0.3,0.7-0.5,1.2-0.5c0.5,0,0.9,0.2,1.2,0.5
		C164,133.9,164.1,134.3,164.1,134.8z M163.8,138.9v13.7h-2.7v-13.7H163.8z"/>
	<path fill="#FCFAFA" d="M170.2,132.7v19.9h-2.7V133L170.2,132.7z"/>
	<path fill="#FCFAFA" d="M176.9,134.8c0,0.5-0.2,0.9-0.5,1.2c-0.3,0.3-0.7,0.5-1.2,0.5c-0.5,0-0.9-0.2-1.2-0.5
		c-0.3-0.3-0.5-0.7-0.5-1.2c0-0.5,0.2-0.9,0.5-1.2c0.3-0.3,0.7-0.5,1.2-0.5c0.5,0,0.9,0.2,1.2,0.5
		C176.7,133.9,176.9,134.3,176.9,134.8z M176.6,138.9v13.7h-2.7v-13.7H176.6z"/>
	<path fill="#FCFAFA" d="M183.4,139.1h2.5l0.8,2.1h-3.3v7.2c0,0.7,0.2,1.3,0.5,1.7c0.3,0.4,0.8,0.6,1.5,0.6c0.3,0,0.8-0.1,1.3-0.3
		l0.7,2.1c-0.3,0.2-0.6,0.3-1.1,0.4s-0.9,0.2-1.2,0.2c-1.4,0-2.4-0.4-3.2-1.1c-0.8-0.7-1.2-1.8-1.2-3.2v-7.6h-1.9l0-2.1h1.9v-3.4
		l2.7-0.6V139.1z"/>
	<path fill="#FCFAFA" d="M200.9,138.9l-5.1,13.5v6.6h-2.6v-6.5l-5-13.2l2.6-1l3.8,10.4l3.6-9.9H200.9z"/>
</g>
<g>
	<path fill="#FCFAFA" d="M104.3,187.7v7h-2.7v-19.2h5.5c2.2,0,3.9,0.5,5.3,1.5c1.3,1,2,2.5,2,4.5c0,1.4-0.3,2.5-1,3.4
		c-0.7,0.9-1.6,1.6-2.7,2c-1.1,0.4-2.4,0.7-3.8,0.7H104.3z M111.5,181.7c0-1.4-0.4-2.4-1.1-2.9c-0.8-0.6-1.9-0.9-3.3-0.9h-2.8v7.6
		h2.6c1.4,0,2.5-0.3,3.3-0.9C111,183.9,111.5,182.9,111.5,181.7z"/>
	<path fill="#FCFAFA" d="M121.7,192.9c0.6,0,1.3-0.2,2.1-0.6c0.8-0.4,1.5-0.9,2.2-1.6v-9.6h2.7v13.7h-1.9l-0.5-1.8
		c-0.7,0.7-1.6,1.2-2.5,1.6c-0.9,0.4-1.8,0.6-2.7,0.6c-1.5,0-2.6-0.5-3.3-1.4c-0.7-0.9-1.1-2.2-1.1-3.7v-9h2.7v8.8
		c0,1,0.2,1.8,0.5,2.3S120.9,192.9,121.7,192.9z"/>
	<path fill="#FCFAFA" d="M137.3,184c-0.9,0.5-1.7,1.1-2.4,1.7v9h-2.7v-13.7h1.5l0.9,2.2c0.6-0.5,1.4-1.1,2.3-1.5
		c0.9-0.5,1.6-0.7,2.3-0.7l0.6,2.2C139,183.2,138.2,183.5,137.3,184z"/>
	<path fill="#FCFAFA" d="M154.1,188c0,1.4-0.3,2.6-0.8,3.7c-0.6,1.1-1.4,1.9-2.4,2.5s-2.2,0.9-3.6,0.9c-0.4,0-0.8-0.1-1.3-0.2
		c-0.5-0.1-1-0.3-1.5-0.6v6.9h-2.7v-20.1h1.5l0.6,0.8c0.6-0.4,1.2-0.7,1.8-0.9s1.2-0.3,1.6-0.3c1.4,0,2.6,0.3,3.6,0.9
		c1,0.6,1.8,1.5,2.4,2.5C153.9,185.3,154.1,186.5,154.1,188z M151.4,188c0-1.5-0.4-2.7-1.1-3.6c-0.7-0.9-1.7-1.4-3-1.4
		c-1.1,0-2,0.3-2.8,1v7.9c0.8,0.6,1.7,0.9,2.8,0.9c1.3,0,2.2-0.4,3-1.3C151,190.6,151.4,189.4,151.4,188z"/>
	<path fill="#FCFAFA" d="M162.6,195.1c-1.4,0-2.6-0.3-3.6-0.9c-1-0.6-1.8-1.4-2.4-2.5c-0.5-1.1-0.8-2.3-0.8-3.8
		c0-1.4,0.3-2.7,0.8-3.7c0.6-1.1,1.4-1.9,2.4-2.5s2.2-0.9,3.6-0.9c1.4,0,2.6,0.3,3.6,0.9c1,0.6,1.8,1.4,2.4,2.5
		c0.6,1.1,0.8,2.3,0.8,3.8c0,1.4-0.3,2.7-0.8,3.7c-0.6,1.1-1.4,1.9-2.4,2.5C165.2,194.8,164,195.1,162.6,195.1z M166.7,188
		c0-1.5-0.4-2.7-1.1-3.6c-0.7-0.9-1.7-1.4-3-1.4c-1.2,0-2.2,0.5-3,1.4s-1.1,2.1-1.1,3.5c0,1.5,0.4,2.7,1.1,3.6
		c0.7,0.9,1.7,1.4,3,1.4c1.2,0,2.2-0.5,3-1.4C166.3,190.5,166.7,189.3,166.7,188z"/>
	<path fill="#FCFAFA" d="M175.8,195.1c-0.7,0-1.4-0.1-2.4-0.3c-0.9-0.2-1.6-0.5-2.2-0.9l0.8-1.9c1.3,0.6,2.5,0.9,3.7,0.9
		c0.9,0,1.6-0.2,2.2-0.5c0.5-0.3,0.8-0.7,0.8-1.3c0-0.9-1-1.7-3-2.4c-3-1-4.5-2.3-4.5-4.1c0-1.2,0.5-2.2,1.4-2.9
		c0.9-0.7,2.2-1.1,3.8-1.1c0.6,0,1.4,0.1,2.3,0.4c0.9,0.2,1.6,0.6,2.1,0.9l-0.8,1.8c-0.7-0.3-1.3-0.5-1.8-0.7
		c-0.5-0.2-1.1-0.2-1.8-0.2c-0.7,0-1.3,0.2-1.8,0.5c-0.5,0.3-0.7,0.7-0.7,1.2c0,0.4,0.3,0.7,0.7,1c0.5,0.3,1.2,0.6,2.1,0.9
		c3.1,1.1,4.6,2.6,4.6,4.4c0,1.3-0.5,2.3-1.4,3C179,194.8,177.6,195.1,175.8,195.1z"/>
	<path fill="#FCFAFA" d="M189.6,180.7c2,0,3.5,0.7,4.5,2s1.5,3,1.5,5.1v0.7h-9.7c0.1,1.3,0.5,2.4,1.3,3.2c0.7,0.8,1.8,1.2,3.3,1.2
		c0.7,0,1.3-0.1,1.9-0.3c0.5-0.2,1.3-0.5,2.2-0.9l0.8,2c-1.7,1-3.3,1.5-5,1.5c-2.4,0-4.2-0.6-5.5-1.9c-1.3-1.3-1.9-3-1.9-5.2
		c0-1.4,0.3-2.7,0.8-3.7c0.5-1.1,1.3-1.9,2.3-2.5S188.2,180.7,189.6,180.7z M189.5,183c-1,0-1.9,0.3-2.5,1c-0.6,0.6-1,1.5-1.1,2.7h7
		C192.6,184.2,191.4,183,189.5,183z"/>
</g>
<path fill="#FCFAFA" d="M98.2,91.9c-1-0.1-2.1,0.7-3.2,1.8H82.7c-1,0-1.8,0.8-1.8,1.8v4.3c-0.3,0.3-0.5,0.5-0.5,0.5
	c0.2,0.1,0.3,0.1,0.5,0.3v8.4c0,1,0.8,1.8,1.8,1.8H97c1,0,1.8-0.8,1.8-1.8V95.6c0-0.4-0.1-0.8-0.4-1.1c0.4-0.3,0.7-0.5,0.9-0.7
	C100.2,93.2,102,92.8,98.2,91.9z M84.2,95.2h9.6c-2.7,3.4-5.2,8.6-6.1,10.5c-1.3,3-2.4,1.4-2.4,1.4s-0.7-1.8-1.9-5.6
	c-0.3-1.1-0.7-1.6-1.1-1.9V97C82.4,96,83.2,95.2,84.2,95.2z M97.3,107.6c0,1-0.8,1.8-1.8,1.8H84.2c-1,0-1.8-0.8-1.8-1.8v-4.8
	c1,2.2,1.7,5.2,2,5.7c0.5,0.8,2.5,1.7,4.1-0.4c3.9-6.9,6.7-10.4,8.5-12.3c0.2,0.3,0.4,0.7,0.4,1.1V107.6z"/>
<path fill="#FCFAFA" d="M98.2,133.7c-1-0.1-2.1,0.7-3.2,1.8H82.7c-1,0-1.8,0.8-1.8,1.8v4.3c-0.3,0.3-0.5,0.5-0.5,0.5
	c0.2,0.1,0.3,0.1,0.5,0.3v8.4c0,1,0.8,1.8,1.8,1.8H97c1,0,1.8-0.8,1.8-1.8v-13.5c0-0.4-0.1-0.8-0.4-1.1c0.4-0.3,0.7-0.5,0.9-0.7
	C100.2,135,102,134.6,98.2,133.7z M84.2,136.9h9.6c-2.7,3.4-5.2,8.6-6.1,10.5c-1.3,3-2.4,1.4-2.4,1.4s-0.7-1.8-1.9-5.6
	c-0.3-1.1-0.7-1.6-1.1-1.9v-2.6C82.4,137.8,83.2,136.9,84.2,136.9z M97.3,149.4c0,1-0.8,1.8-1.8,1.8H84.2c-1,0-1.8-0.8-1.8-1.8v-4.8
	c1,2.2,1.7,5.2,2,5.7c0.5,0.8,2.5,1.7,4.1-0.4c3.9-6.9,6.7-10.4,8.5-12.3c0.2,0.3,0.4,0.7,0.4,1.1V149.4z"/>
<path fill="#FCFAFA" d="M97.6,175.8c-1-0.1-2.1,0.7-3.2,1.8H82.1c-1,0-1.8,0.8-1.8,1.8v4.3c-0.3,0.3-0.5,0.5-0.5,0.5
	c0.2,0.1,0.3,0.1,0.5,0.3v8.4c0,1,0.8,1.8,1.8,1.8h14.3c1,0,1.8-0.8,1.8-1.8v-13.5c0-0.4-0.1-0.8-0.4-1.1c0.4-0.3,0.7-0.5,0.9-0.7
	C99.6,177.1,101.3,176.7,97.6,175.8z M83.5,179.1h9.6c-2.7,3.4-5.2,8.6-6.1,10.5c-1.3,3-2.4,1.4-2.4,1.4s-0.7-1.8-1.9-5.6
	c-0.3-1.1-0.7-1.6-1.1-1.9v-2.6C81.7,179.9,82.5,179.1,83.5,179.1z M96.7,191.5c0,1-0.8,1.8-1.8,1.8H83.5c-1,0-1.8-0.8-1.8-1.8v-4.8
	c1,2.2,1.7,5.2,2,5.7c0.5,0.8,2.5,1.7,4.1-0.4c3.9-6.9,6.7-10.4,8.5-12.3c0.2,0.3,0.4,0.7,0.4,1.1V191.5z"/>
</svg>
