<?xml version="1.0" encoding="utf-8"?>
<!-- Generator: Adobe Illustrator 22.1.0, SVG Export Plug-In . SVG Version: 6.00 Build 0)  -->
<svg version="1.1" id="Layer_1" xmlns="http://www.w3.org/2000/svg" xmlns:xlink="http://www.w3.org/1999/xlink" x="0px" y="0px"
	 viewBox="0 0 60 60" enable-background="new 0 0 60 60" xml:space="preserve">
<rect x="26" y="6.5" transform="matrix(0.7071 -0.7071 0.7071 0.7071 -12.298 29.6026)" fill="#11B6DA" stroke="#FFFFFF" stroke-width="0.25" stroke-miterlimit="10" width="7.2" height="46.3"/>
<path fill="#11B6DA" stroke="#FFFFFF" stroke-width="0.25" stroke-miterlimit="10" d="M13.1,2.2c-1.3-0.3-3.3-0.8-4.4-0.5
	C8,1.9,7.8,2.8,8.2,3.2l6,6c0.7,0.7,0.7,1.8,0,2.4l-2.6,2.6C11,15,9.9,15,9.2,14.4L3.6,8.8C3.1,8.2,2.2,8.6,2.1,9.3
	C2,10.5,2,12.1,2.3,13.2c1.3,5.1,6.9,8.5,12.5,5.9c2-0.9,3.6-2.5,4.4-4.5C21.6,9.1,18.2,3.4,13.1,2.2z"/>
<path fill="#11B6DA" stroke="#FFFFFF" stroke-width="0.25" stroke-miterlimit="10" d="M46.9,57.4c1.3,0.3,3.3,0.8,4.4,0.5
	c0.7-0.2,0.9-1,0.4-1.5l-6-6c-0.7-0.7-0.7-1.8,0-2.4l2.6-2.6c0.7-0.7,1.8-0.7,2.4,0l5.6,5.6c0.5,0.5,1.5,0.2,1.5-0.5
	c0.1-1.2,0.1-2.8-0.2-3.9c-1.3-5.1-6.9-8.5-12.5-5.9c-2,0.9-3.6,2.5-4.4,4.5C38.4,50.5,41.8,56.2,46.9,57.4z"/>
<rect x="7" y="25.9" transform="matrix(0.7071 -0.7071 0.7071 0.7071 -12.0053 29.9571)" fill="#11B6DA" stroke="#FFFFFF" stroke-width="0.25" stroke-miterlimit="10" width="46.3" height="7.2"/>
<path fill="#11B6DA" stroke="#FFFFFF" stroke-width="0.25" stroke-miterlimit="10" d="M57.6,12.9c0.3-1.3,0.8-3.3,0.5-4.4
	c-0.2-0.7-1-0.9-1.5-0.4l-6,6c-0.7,0.7-1.8,0.7-2.4,0l-2.6-2.6c-0.7-0.7-0.7-1.8,0-2.4L51,3.4c0.5-0.5,0.2-1.5-0.5-1.5
	c-1.2-0.1-2.8-0.1-3.9,0.2c-5.1,1.3-8.5,6.9-5.9,12.5c0.9,2,2.5,3.6,4.5,4.4C50.7,21.5,56.4,18,57.6,12.9z"/>
<path fill="#11B6DA" stroke="#FFFFFF" stroke-width="0.25" stroke-miterlimit="10" d="M2.4,46.7C2.1,48,1.6,50,1.9,51.1
	c0.2,0.7,1,0.9,1.5,0.4l6-6c0.7-0.7,1.8-0.7,2.4,0l2.6,2.6c0.7,0.7,0.7,1.8,0,2.4L9,56.2c-0.5,0.5-0.2,1.5,0.5,1.5
	c1.2,0.1,2.8,0.1,3.9-0.2c5.1-1.3,8.5-6.9,5.9-12.5c-0.9-2-2.5-3.6-4.5-4.4C9.3,38.2,3.6,41.6,2.4,46.7z"/>
</svg>
